<?xml version="1.0" encoding="utf-8"?>
<!-- Generator: Adobe Illustrator 27.5.0, SVG Export Plug-In . SVG Version: 6.00 Build 0)  -->
<svg version="1.1" xmlns="http://www.w3.org/2000/svg" xmlns:xlink="http://www.w3.org/1999/xlink" x="0px" y="0px"
	 viewBox="0 0 500 500" style="enable-background:new 0 0 500 500;" xml:space="preserve">
<g id="BACKGROUND">
	<rect style="fill:#321025;" width="500" height="500"/>
</g>
<g id="OBJECTS">
	<g>
		<path style="fill:none;stroke:#3E1E2C;stroke-width:6;stroke-linecap:round;stroke-linejoin:round;stroke-miterlimit:10;" d="
			M250,90.3c0-2.491,0-4.983,0-7.474"/>
		<path style="fill:none;stroke:#3E1E2C;stroke-width:6;stroke-linecap:round;stroke-linejoin:round;stroke-miterlimit:10;" d="
			M250,211.662c0.393-34.931,0.393-69.829,0.05-105.175"/>
		<path style="fill:none;stroke:#3E1E2C;stroke-width:6;stroke-linecap:round;stroke-linejoin:round;stroke-miterlimit:10;" d="
			M362.985,136.965c1.741-1.726,3.482-3.451,5.225-5.174"/>
		<path style="fill:none;stroke:#3E1E2C;stroke-width:6;stroke-linecap:round;stroke-linejoin:round;stroke-miterlimit:10;" d="
			M317.388,182.574c11.206-11.31,22.449-22.582,33.73-33.817"/>
		<path style="fill:none;stroke:#3E1E2C;stroke-width:6;stroke-linecap:round;stroke-linejoin:round;stroke-miterlimit:10;" d="
			M277.109,222.891c8.519-10.329,19.678-18.035,28.572-28.009"/>
		<path style="fill:none;stroke:#3E1E2C;stroke-width:6;stroke-linecap:round;stroke-linejoin:round;stroke-miterlimit:10;" d="
			M346.613,250.13c23.52,0.247,47.042,0.198,70.561-0.13"/>
		<path style="fill:none;stroke:#3E1E2C;stroke-width:6;stroke-linecap:round;stroke-linejoin:round;stroke-miterlimit:10;" d="
			M288.338,250c13.543,0.384,28.014,0.384,41.322,0"/>
		<path style="fill:none;stroke:#3E1E2C;stroke-width:6;stroke-linecap:round;stroke-linejoin:round;stroke-miterlimit:10;" d="
			M334.353,334.612c11.125,11.362,22.966,22.003,33.857,33.598"/>
		<path style="fill:none;stroke:#3E1E2C;stroke-width:6;stroke-linecap:round;stroke-linejoin:round;stroke-miterlimit:10;" d="
			M277.109,277.109c15.14,15.197,30.307,30.366,45.503,45.507"/>
		<path style="fill:none;stroke:#3E1E2C;stroke-width:6;stroke-linecap:round;stroke-linejoin:round;stroke-miterlimit:10;" d="
			M250,412.359c0,1.605,0,3.21,0,4.815"/>
		<path style="fill:none;stroke:#3E1E2C;stroke-width:6;stroke-linecap:round;stroke-linejoin:round;stroke-miterlimit:10;" d="
			M250,288.338c0.393,35.621,0.393,72.7,0.069,108.838"/>
		<path style="fill:none;stroke:#3E1E2C;stroke-width:6;stroke-linecap:round;stroke-linejoin:round;stroke-miterlimit:10;" d="
			M145.942,354.702c-4.552,4.673-9.185,9.273-14.152,13.508"/>
		<path style="fill:none;stroke:#3E1E2C;stroke-width:6;stroke-linecap:round;stroke-linejoin:round;stroke-miterlimit:10;" d="
			M175.315,324.597c-5.961,5.982-11.84,12.045-17.719,18.108"/>
		<path style="fill:none;stroke:#3E1E2C;stroke-width:6;stroke-linecap:round;stroke-linejoin:round;stroke-miterlimit:10;" d="
			M222.891,277.109c-12.362,11.263-23.216,23.021-34.359,34.359"/>
		<path style="fill:none;stroke:#3E1E2C;stroke-width:6;stroke-linecap:round;stroke-linejoin:round;stroke-miterlimit:10;" d="
			M96.007,250.181c-4.394-0.046-8.787-0.107-13.181-0.181"/>
		<path style="fill:none;stroke:#3E1E2C;stroke-width:6;stroke-linecap:round;stroke-linejoin:round;stroke-miterlimit:10;" d="
			M149.616,250c-12.538,0.216-25.077,0.311-37.617,0.283"/>
		<path style="fill:none;stroke:#3E1E2C;stroke-width:6;stroke-linecap:round;stroke-linejoin:round;stroke-miterlimit:10;" d="
			M211.662,250c-15.009,0.315-30.023,0.374-45.034,0.175"/>
		<path style="fill:none;stroke:#3E1E2C;stroke-width:6;stroke-linecap:round;stroke-linejoin:round;stroke-miterlimit:10;" d="
			M148.6,148.873c-5.582-5.713-10.859-11.741-16.81-17.083"/>
		<path style="fill:none;stroke:#3E1E2C;stroke-width:6;stroke-linecap:round;stroke-linejoin:round;stroke-miterlimit:10;" d="
			M222.891,222.891c-20.503-21.348-42.21-41.247-62.512-62.512"/>
		<path style="fill:none;stroke:#3E1E2C;stroke-width:6;stroke-linecap:round;stroke-linejoin:round;stroke-miterlimit:10;" d="
			M197.006,120.965c-3.283-8.626-6.35-17.342-10.306-25.692"/>
		<path style="fill:none;stroke:#3E1E2C;stroke-width:6;stroke-linecap:round;stroke-linejoin:round;stroke-miterlimit:10;" d="
			M235.483,214.517c-10.483-23.828-18.623-48.249-29.331-71.696"/>
		<path style="fill:none;stroke:#3E1E2C;stroke-width:6;stroke-linecap:round;stroke-linejoin:round;stroke-miterlimit:10;" d="
			M302.02,125.946c4.383-10.328,8.905-20.278,12.628-30.114"/>
		<path style="fill:none;stroke:#3E1E2C;stroke-width:6;stroke-linecap:round;stroke-linejoin:round;stroke-miterlimit:10;" d="
			M264.826,214.645c9.592-23.161,20.466-45.822,28.719-69.52"/>
		<path style="fill:none;stroke:#3E1E2C;stroke-width:6;stroke-linecap:round;stroke-linejoin:round;stroke-miterlimit:10;" d="
			M382.953,195.519c7.177-3.135,14.382-6.219,21.773-8.819"/>
		<path style="fill:none;stroke:#3E1E2C;stroke-width:6;stroke-linecap:round;stroke-linejoin:round;stroke-miterlimit:10;" d="
			M285.483,235.483c27.303-11.493,55.131-21.704,82.306-33.509"/>
		<path style="fill:none;stroke:#3E1E2C;stroke-width:6;stroke-linecap:round;stroke-linejoin:round;stroke-miterlimit:10;" d="
			M396.139,311.656c2.636,1.103,5.321,2.082,8.029,2.992"/>
		<path style="fill:none;stroke:#3E1E2C;stroke-width:6;stroke-linecap:round;stroke-linejoin:round;stroke-miterlimit:10;" d="
			M357.94,295.263c8.228,3.45,16.456,6.9,24.683,10.351"/>
		<path style="fill:none;stroke:#3E1E2C;stroke-width:6;stroke-linecap:round;stroke-linejoin:round;stroke-miterlimit:10;" d="
			M285.355,264.826c19.09,8.005,38.18,16.01,57.271,24.015"/>
		<path style="fill:none;stroke:#3E1E2C;stroke-width:6;stroke-linecap:round;stroke-linejoin:round;stroke-miterlimit:10;" d="
			M311.118,399.393c0.727,1.778,1.455,3.556,2.182,5.334"/>
		<path style="fill:none;stroke:#3E1E2C;stroke-width:6;stroke-linecap:round;stroke-linejoin:round;stroke-miterlimit:10;" d="
			M292.771,355.107c3.53,8.618,7.082,17.227,10.666,25.823"/>
		<path style="fill:none;stroke:#3E1E2C;stroke-width:6;stroke-linecap:round;stroke-linejoin:round;stroke-miterlimit:10;" d="
			M264.517,285.483c8.481,20.9,16.901,41.824,25.426,62.706"/>
		<path style="fill:none;stroke:#3E1E2C;stroke-width:6;stroke-linecap:round;stroke-linejoin:round;stroke-miterlimit:10;" d="
			M197.348,375.604c-4.067,9.492-8.255,18.936-11.996,28.564"/>
		<path style="fill:none;stroke:#3E1E2C;stroke-width:6;stroke-linecap:round;stroke-linejoin:round;stroke-miterlimit:10;" d="
			M208.625,348.668c-1.136,2.708-2.271,5.416-3.407,8.124"/>
		<path style="fill:none;stroke:#3E1E2C;stroke-width:6;stroke-linecap:round;stroke-linejoin:round;stroke-miterlimit:10;" d="
			M235.174,285.355c-6.418,15.305-12.836,30.61-19.253,45.914"/>
		<path style="fill:none;stroke:#3E1E2C;stroke-width:6;stroke-linecap:round;stroke-linejoin:round;stroke-miterlimit:10;" d="
			M120.134,303.389c-8.268,3.35-16.712,6.267-24.86,9.911"/>
		<path style="fill:none;stroke:#3E1E2C;stroke-width:6;stroke-linecap:round;stroke-linejoin:round;stroke-miterlimit:10;" d="
			M138.308,295.736c-0.95,0.376-1.9,0.751-2.851,1.125"/>
		<path style="fill:none;stroke:#3E1E2C;stroke-width:6;stroke-linecap:round;stroke-linejoin:round;stroke-miterlimit:10;" d="
			M214.517,264.517c-20.05,7.757-39.781,16.301-59.649,24.504"/>
		<path style="fill:none;stroke:#3E1E2C;stroke-width:6;stroke-linecap:round;stroke-linejoin:round;stroke-miterlimit:10;" d="
			M99.805,187.018c-1.324-0.555-2.648-1.111-3.973-1.666"/>
		<path style="fill:none;stroke:#3E1E2C;stroke-width:6;stroke-linecap:round;stroke-linejoin:round;stroke-miterlimit:10;" d="
			M154.915,210.313c-13.006-5.482-26.002-10.988-38.997-16.495"/>
		<path style="fill:none;stroke:#3E1E2C;stroke-width:6;stroke-linecap:round;stroke-linejoin:round;stroke-miterlimit:10;" d="
			M214.645,235.174c-13.763-5.632-27.497-11.336-41.214-17.081"/>
	</g>
	<ellipse style="fill:#250A20;" cx="250" cy="396.168" rx="79.659" ry="9.026"/>
	<g>
		<path style="fill:#335E4E;" d="M252.197,223.786c-0.475-0.727-1.259-0.84-2.037-0.585c-2.448,0.801-4.781,1.9-7.242,2.669
			c-2.473,0.773-5.003,1.372-7.543,1.876c-5.17,1.025-10.416,1.642-15.62,2.464c-9.636,1.523-19.438,3.568-27.565,9.259
			c-4.11,2.878-7.455,6.661-9.314,11.348c-0.821,2.07,2.433,3.171,3.268,1.117c3.353-8.249,10.718-13.725,18.976-16.465
			c9.869-3.274,20.453-2.871,30.638-4.439c5.426-0.835,11.577-1.954,16.153-5.144C252.57,225.427,252.596,224.397,252.197,223.786z"
			/>
		<g>
			<g>
				<polygon style="fill:#335E4E;" points="269.387,160.278 266.113,179.412 233.42,179.412 230.584,160.278 				"/>
				<path style="fill:#335E4E;" d="M283.536,172.952h-65.985c-2.682,0-4.856,2.174-4.856,4.856v3.208
					c0,2.682,2.174,4.856,4.856,4.856h65.985c2.682,0,4.856-2.174,4.856-4.856v-3.208
					C288.392,175.126,286.218,172.952,283.536,172.952z"/>
				<g>
					<g>
						<path style="fill:#335E4E;" d="M287.13,144.988c-1.24,11.15-12.76,21.02-25.84,25.75c-1.77,0.64-3.65,1.08-5.6,1.35
							c-2.98,0.43-6.1,0.44-9.25,0.13c-0.21-0.03-0.43-0.05-0.65-0.07c-1.13-0.13-2.27-0.3-3.4-0.51c-0.22-0.04-0.44-0.09-0.66-0.13
							c-2.26-0.45-4.48-1.04-6.63-1.76c-5.81-1.94-11.05-4.76-14.69-7.9c-9.42-8.11-12.29-20.16-7.17-30.01
							c5.12-9.86,18.01-17.08,32.11-17.98c7.48-0.48,15.2,0.73,21.85,3.47C280.16,122.668,288.35,134.038,287.13,144.988z"/>
					</g>
					<g>
						<path style="fill:#467362;" d="M245.801,157.332c-5.129-0.811-10.252-1.591-15.115-3.494
							c-4.737-1.853-9.011-4.78-13.276-7.493c-1.019-0.648-2.312,0.661-1.678,1.678c1.554,2.491,3.376,4.374,5.71,6.166
							c2.248,1.725,4.755,3.162,7.358,4.282c5.363,2.308,11.16,3.688,17.001,2.761C247.757,160.922,247.759,157.642,245.801,157.332
							z"/>
						<path style="fill:#467362;" d="M261.57,158.056c-0.37-1.197-1.452-1.761-2.647-1.548c-0.678,0.121-1.368,0.195-2.042,0.338
							c-0.696,0.148-1.384,0.308-2.089,0.414c-0.114,0.017-0.709,0.106-0.16,0.025c-0.284,0.042-0.566,0.074-0.848,0.128
							c-0.33,0.063-0.66,0.121-0.993,0.171c-0.069,0.01-0.139,0.02-0.208,0.03c-0.005,0.001-0.007,0.001-0.013,0.001
							c-0.259,0.033-0.509,0.072-0.763,0.127c-0.344,0.076-0.689,0.141-1.036,0.2c-0.616,0.106-1.128,0.818-1.102,1.428
							c0.03,0.697,0.457,1.199,1.102,1.428c1.464,0.522,3.013,0.795,4.572,0.743c0.709-0.024,1.416-0.083,2.12-0.169
							c0.897-0.11,1.715-0.351,2.558-0.671c0.562-0.213,1.028-0.484,1.336-1.027C261.616,159.223,261.727,158.563,261.57,158.056z"
							/>
						<path style="fill:#467362;" d="M280.721,144.331c-0.119,0.188-0.245,0.372-0.363,0.56c-0.042,0.061-0.083,0.122-0.125,0.184
							c-0.249,0.302-0.514,0.588-0.763,0.89c-0.511,0.621-1.025,1.247-1.563,1.845c-1.07,1.187-2.235,2.272-3.395,3.367
							c-0.562,0.531-1.182,0.993-1.751,1.514c-0.293,0.268-0.579,0.542-0.882,0.798c-0.053,0.044-0.194,0.158-0.221,0.182
							c-0.156,0.118-0.314,0.235-0.474,0.346c-1.245,0.856-2.832,1.434-4.261,1.906c-1.415,0.467-1.301,2.812,0.351,2.721
							c0.935-0.052,1.894-0.118,2.807-0.333c0.864-0.204,1.694-0.506,2.545-0.748c1.814-0.516,3.491-1.152,5.061-2.215
							c1.738-1.177,3.149-2.68,4.332-4.404c1.092-1.59,1.699-3.336,2.21-5.183C284.822,143.62,281.857,142.531,280.721,144.331z"/>
					</g>
					<path style="fill:#A87E3E;" d="M254.741,107.784c-0.071-2.883-1.812-5.364-4.305-6.445c-2.369-1.028-5.098-0.411-6.966,1.411
						c-1.977,1.928-2.716,4.872-1.796,7.559c0.18,0.527,0.43,1.006,0.712,1.459c0.228,0.478,0.496,0.935,0.839,1.33
						c1.797,2.068,4.832,2.682,7.264,1.611c0.35-0.119,0.696-0.255,1.029-0.419c0.136-0.067,0.212-0.186,0.245-0.319
						C253.599,112.571,254.8,110.191,254.741,107.784z"/>
					<path style="fill:#A87E3E;" d="M285.36,129.745c-3.33-5.55-8.63-9.65-14.45-12.33c-3.32-1.53-6.86-2.63-10.45-3.27
						c-2.63-0.47-5.25-0.64-7.89-0.68h-0.22l-1.54-0.02h-0.58l-4.24-0.03h-0.22c-0.73,0-1.46,0.02-2.19,0.04
						c-2.42,0.07-4.82,0.27-7.24,0.72c-3.59,0.66-7.12,1.78-10.43,3.34c-5.8,2.72-11.08,6.85-14.36,12.43
						c-0.91,1.55-2.01,3.45-2.01,5.29c-0.01,0.2,0.02,0.4,0.05,0.6c0.01,0.31,0.07,0.61,0.18,0.9c0.25,0.66,0.71,1.18,1.29,1.54
						c0.7,0.44,1.55,0.66,2.38,0.65c3.78-0.07,5.25-4.67,6.87-7.35c0.59-0.96,1.24-1.87,1.93-2.75l0.01-0.01
						c2.03-2.56,4.51-4.77,7.22-6.65c-0.31,0.3-0.61,0.6-0.9,0.91l-0.01,0.01c-3.73,3.88-6.55,8.66-8.07,14
						c-0.73,2.56-1.15,6.03,0.94,8.09c2,1.96,4.98,1.44,6.4-0.9c1.42-2.32,1.47-5.45,2.26-8.02c0.86-2.8,2.08-5.46,3.61-7.94
						c0.24-0.4,0.49-0.79,0.76-1.17c0.01-0.02,0.02-0.03,0.03-0.05c1.05-1.57,2.23-3.06,3.5-4.45c-0.41,0.66-0.81,1.33-1.19,2.02
						c-0.22,0.41-0.42,0.82-0.62,1.23c-2.26,4.72-3.23,9.86-3.3,15.09c-0.03,2.18-0.34,5.09,0.85,7.05c1.09,1.8,3.31,2.09,5.02,1.03
						c2.18-1.36,2.3-3.9,2.43-6.21c0.14-2.47,0.47-4.91,0.91-7.34c0-0.01,0-0.01,0-0.02c0.09-0.47,0.18-0.96,0.28-1.44
						c0.38-1.87,0.81-3.74,1.3-5.59c-0.11,1.07-0.19,2.15-0.25,3.23c0,0.05,0,0.1-0.01,0.15c-0.21,4.58,0.12,9.2,0.95,13.69
						c0.38,2.04,1.18,4.47,3.3,5.3c2.15,0.84,4.24-0.55,5.13-2.5c1.05-2.28,1.15-5.25,1.28-7.72c0.04-0.75,0.06-1.5,0.07-2.26
						c0.03-2.15-0.05-4.3-0.25-6.44c-0.01-0.12-0.02-0.23-0.04-0.35v-0.01c-0.04-0.4-0.08-0.79-0.13-1.18
						c0.3,1.23,0.58,2.46,0.84,3.69c0.61,2.92,1.07,5.82,1.25,8.79c0.15,2.31,0.28,4.86,2.48,6.19c1.72,1.05,3.94,0.75,5.01-1.06
						c1.17-1.96,0.85-4.87,0.8-7.05c-0.07-3.2-0.47-6.37-1.29-9.42c-0.64-2.37-1.54-4.68-2.74-6.88c-0.38-0.69-0.78-1.35-1.2-2.01
						c1.09,1.18,2.12,2.44,3.05,3.75c0.01,0.01,0.01,0.01,0.01,0.02c0.44,0.61,0.86,1.23,1.26,1.87c1.55,2.48,2.79,5.13,3.67,7.91
						c0.8,2.57,0.87,5.7,2.31,8.02c1.44,2.32,4.42,2.82,6.41,0.85c2.08-2.07,1.63-5.54,0.88-8.1c-1.15-3.95-3.02-7.59-5.44-10.79
						c-0.04-0.06-0.09-0.12-0.13-0.17c-1.06-1.39-2.24-2.7-3.5-3.9c1.72,1.17,3.36,2.49,4.84,3.96c0.03,0.02,0.05,0.04,0.07,0.07
						c1.65,1.6,3.09,3.37,4.3,5.33c1.65,2.67,3.15,7.25,6.93,7.29c1.1,0.01,2.26-0.39,3.02-1.19v-0.01
						c0.27-0.29,0.49-0.62,0.64-1.01c0.1-0.29,0.16-0.59,0.17-0.89c0.03-0.21,0.05-0.41,0.05-0.61
						C287.39,133.185,286.28,131.285,285.36,129.745z M219.43,130.385c-1.15,1.66-2.02,3.87-3.63,5.12c-0.82,0.63-2,1.22-3.05,1.02
						c-0.25-0.05-0.5-0.16-0.72-0.3c-0.22-1.37,0.39-2.63,1.09-3.99c0.83-1.6,1.82-3.12,2.96-4.53c2.2-2.71,4.88-5.06,7.87-6.89
						c3.34-2.04,7.07-3.4,10.85-4.34c0.11-0.03,0.22-0.05,0.33-0.07c-3.01,1.42-5.81,3.29-8.23,5.43
						C224.06,124.345,221.6,127.285,219.43,130.385z M228.34,136.125c-0.3,1.1-0.54,2.21-0.74,3.33c-0.27,1.48-0.52,3.13-1.86,4.05
						c-1.08,0.75-2.22,0.49-3.12-0.4c-1.21-1.2-1.17-2.71-0.84-4.29c1.15-5.54,4.32-10.86,8.23-14.88c3.14-3.23,6.99-5.82,11.16-7.6
						c0.46-0.16,0.92-0.31,1.38-0.45C235.68,120.755,230.6,127.945,228.34,136.125z M241.72,128.385c-1.23,4.9-1.66,9.82-2.29,14.82
						c-0.2,1.58-1.27,5.26-3.62,4.45c-0.93-0.32-1.14-1.54-1.29-2.39c-0.23-1.4-0.34-2.82-0.32-4.24
						c0.05-5.06,1.58-10.16,3.88-14.64c1.94-3.77,4.59-7.15,7.69-10.04C244.17,120.275,242.77,124.255,241.72,128.385z
						 M251.63,142.545c-0.12,1.78-0.01,5.5-2.22,6.16c-2.43,0.73-3.01-3-3.31-4.56c-0.87-4.61-1.06-9.3-0.63-13.97
						c0.43-4.6,1.45-9.11,2.89-13.49c0.35,1.28,0.78,2.56,1.1,3.82c0.6,2.37,1.15,4.75,1.56,7.16
						C251.86,132.595,251.96,137.565,251.63,142.545z M262.49,145.225c-0.14,0.85-0.34,2.07-1.27,2.4
						c-2.35,0.82-3.44-2.85-3.65-4.43c-0.67-4.99-1.13-9.91-2.4-14.8c-1.07-4.12-2.5-8.09-4.13-12.01c3.12,2.87,5.8,6.22,7.76,9.98
						c2.33,4.47,3.9,9.56,3.99,14.62C262.81,142.405,262.72,143.825,262.49,145.225z M275.19,138.685c0.34,1.58,0.39,3.09-0.81,4.3
						c-0.89,0.9-2.04,1.16-3.12,0.42c-1.34-0.91-1.61-2.56-1.89-4.04c-0.21-1.12-0.45-2.23-0.76-3.32
						c-2.31-8.17-7.44-15.32-14.34-20.15c0.46,0.14,0.92,0.29,1.37,0.44c4.19,1.76,8.06,4.32,11.22,7.52
						C270.8,127.855,274,133.155,275.19,138.685z M284.92,136.035c-0.22,0.14-0.47,0.25-0.72,0.3c-1.05,0.21-2.24-0.38-3.05-1
						c-1.62-1.24-2.5-3.44-3.67-5.09c-2.19-3.09-4.67-6.01-7.53-8.5c-2.43-2.12-5.24-3.98-8.26-5.38c0.11,0.03,0.22,0.05,0.33,0.07
						c3.79,0.91,7.53,2.25,10.88,4.27c2.99,1.81,5.69,4.14,7.92,6.84c1.15,1.39,2.14,2.91,2.98,4.51
						C284.51,133.405,285.13,134.665,284.92,136.035z"/>
					<path style="fill:#A87E3E;" d="M241.73,171.508c-2.26-0.45-4.48-1.04-6.63-1.76c-1.59-0.85-3.11-1.81-4.58-2.89
						c-3.59-2.63-6.69-5.89-8.95-9.74c-2.38-4.06-3.67-8.69-3.72-13.4c-0.09-8.97,4.43-17.51,11.91-22.46
						c0.43-0.28,0.82,0.41,0.39,0.69c-3.91,2.56-7.07,6.18-9.1,10.39c-2,4.14-2.76,8.82-2.31,13.39c0.45,4.51,2.22,8.77,4.84,12.45
						C228.09,164.488,234.73,168.468,241.73,171.508z"/>
					<path style="fill:#A87E3E;" d="M243.28,155.288c0.41,5.69,1.31,11.29,2.51,16.86c-1.13-0.13-2.27-0.3-3.4-0.51
						c-2.34-2.02-4.4-4.4-6.08-6.94c-4.22-6.42-6.48-14.2-6.14-21.88c0.35-7.82,3.19-15.91,8.62-21.67
						c0.18-0.19,0.54,0.08,0.38,0.29c-2.63,3.5-4.82,7.28-6.24,11.44c-2.48,7.26-2.65,15.23-0.13,22.51
						c2.22,6.41,6.44,11.93,11.65,16.2c-0.56-2.71-1.02-5.44-1.39-8.18c-0.83-6.08-1.36-12.15-1.37-18.29
						c0-6.18,0.48-12.37,1.55-18.47c0.07-0.36,0.69-0.28,0.65,0.09c-0.36,3.4-0.64,6.82-0.82,10.24
						C242.74,143.088,242.84,149.197,243.28,155.288z"/>
					<path style="fill:#A87E3E;" d="M279.64,148.798c-0.77,4.65-3.06,8.98-6.1,12.54c-3.23,3.76-7.4,6.6-11.92,8.6
						c-1.91,0.84-3.9,1.56-5.93,2.15c-2.98,0.43-6.1,0.44-9.25,0.13c1.71-2.5,3.22-5.14,4.41-7.92c2.4-5.61,3.6-11.7,3.76-17.78
						c0.07-3-0.11-6.02-0.6-8.99c-0.49-3.04-1.47-5.9-2.26-8.86c-0.14-0.51,0.62-0.83,0.85-0.35c1.51,3.1,2.19,6.71,2.67,10.11
						c1.59,11.51-0.99,23.77-7.29,33.59c0.25-0.04,0.5-0.08,0.75-0.12c3.13-1.1,6.01-2.88,8.43-5.16
						c5.92-5.58,8.52-13.77,8.35-21.78c-0.08-4.23-0.95-8.42-2.33-12.41c-0.7-2.05-1.55-4.04-2.5-5.97
						c-0.47-0.97-0.98-1.91-1.5-2.85c-0.52-0.93-1.12-1.83-1.57-2.8c-0.24-0.49,0.43-1.11,0.82-0.62c0.8,0.98,1.4,2.11,2.01,3.21
						c0.61,1.1,1.19,2.22,1.72,3.36c1.06,2.24,1.98,4.56,2.71,6.94c2.54,8.29,2.6,17.55-1.07,25.53c-2.16,4.71-5.7,8.86-10.1,11.6
						c3.01-0.7,5.95-1.62,8.78-2.97c8.23-3.93,15.45-11.54,16.26-20.98c0.91-10.56-5.81-19.84-13.24-26.6
						c-0.29-0.26,0.14-0.67,0.43-0.43c4.54,3.74,8.69,8.15,11.24,13.5C279.44,138.218,280.5,143.568,279.64,148.798z"/>
				</g>
			</g>
			<path style="fill:#BD5B78;" d="M298.62,393.385c0.41,1.2,0.62,2.49,0.59,3.89h-98.42c-0.04-1.43,0.19-2.75,0.62-3.97
				c5.72-16.35,48.54-15.62,10.64-48.2c-16.13-13.87-26.4-28.52-29.66-43.55c-0.46-2.16-0.79-4.34-0.96-6.52
				c-0.15-1.81-0.19-3.62-0.13-5.44c0.26-7.83,2.47-15.73,6.77-23.64c1.29-2.37,2.74-4.64,4.33-6.8c0.51-0.69,1.04-1.37,1.58-2.04
				c0.21-0.27,0.43-0.53,0.66-0.79c1.74-2.11,3.64-4.09,5.66-5.96c0.01-0.01,0.02-0.02,0.04-0.03c0.02-0.03,0.05-0.05,0.08-0.08
				c0.11-0.1,0.22-0.2,0.33-0.3c0.07-0.06,0.14-0.13,0.21-0.19c14.41-13.12,32.42-16.86,37.65-27.92c0.73-1.82,1.13-3.68,1.13-5.47
				c0-5.1-3.23-9.69-11.07-11.61c-0.01,0-0.03,0-0.04-0.01c-2.08-0.51-4.47-0.84-7.22-0.94l-0.36-1.55l-3.76-16.4h64.53v0.01
				l-3.47,17.13h-0.03c-4.01,0.29-7.24,0.95-9.77,1.93c-9.34,3.59-9.15,11.44-3.17,20.27c0.81,0.93,1.68,1.81,2.6,2.65
				c0.93,0.85,1.92,1.66,2.95,2.45c3.7,2.81,7.98,5.28,12.37,7.91c6.85,4.1,13.98,8.6,19.67,15.39c3.49,3.72,6.52,7.85,8.96,12.35
				c14.85,27.33,4.73,54.47-23.98,79.15C249.99,377.735,293.01,376.955,298.62,393.385z"/>
			<path style="fill:#8A1346;" d="M264.946,185.872l-0.323,1.743c-1.309,7.055-7.464,12.174-14.64,12.174l0,0
				c-7.195,0-13.361-5.145-14.649-12.224l-0.308-1.693H264.946z"/>
			<path style="fill:#8A1346;" d="M308.64,307.648c-4.81,11.65-14.1,20.73-21.39,27.39c-13.95,12.74-26.03,27.97-38.26,27.97
				c-11.48,0-15.97-9.85-34.76-27.04c-7.54-6.9-14.25-14.87-19.03-23.16c6.69-0.75,13.26-2.58,19.6-4.8
				c10.09-3.54,19.91-8.21,30.74-9.35c11.52-1.21,22.53,2.24,33.47,5.14c5.54,1.48,11.13,2.81,16.86,3.44
				c4.01,0.44,8.11,0.49,12.16,0.41c0.01,0,0.01,0,0.01,0c0.16,0.01,0.33,0,0.49,0H308.64z"/>
			<g>
				<path style="fill:#D17D96;" d="M277.486,202.053c-2.034-0.797-4.626-0.567-6.775-0.592c-2.325-0.027-4.65-0.04-6.975-0.04
					h-13.951c-4.652,0-9.299,0.058-13.951,0.123c-4.641,0.065-9.324-0.015-13.951,0.377c-1.628,0.138-1.63,2.393,0,2.531
					c4.627,0.392,9.31,0.311,13.951,0.377c4.652,0.066,9.299,0.123,13.951,0.123h13.951c2.326,0,4.65-0.013,6.975-0.04
					c2.143-0.025,4.746,0.203,6.775-0.592C278.611,203.88,278.613,202.495,277.486,202.053z"/>
				<path style="fill:#D17D96;" d="M274.926,235.785c-2.885-1.281-5.809-3.375-8.154-5.479c-2.363-2.121-4.172-4.842-5.382-7.77
					c-1.345-3.253-2.096-7.044-1.443-10.54c0.671-3.592,2.845-5.761,5.762-7.721c0.889-0.597,0.692-2.308-0.583-2.206
					c-3.889,0.311-6.567,3.945-7.628,7.439c-1.267,4.172-0.544,8.826,1.043,12.807c1.399,3.508,3.555,6.574,6.126,9.321
					c1.291,1.379,2.706,2.595,4.301,3.61c1.677,1.067,3.416,1.596,5.297,2.16C275.202,237.688,275.854,236.198,274.926,235.785z"/>
				<path style="fill:#D17D96;" d="M242.777,209.004c-1.652-3.118-4.731-6.173-8.357-6.686c-1.247-0.176-2.21,1.524-0.899,2.21
					c2.834,1.485,5.239,3.203,6.813,6.072c1.649,3.006,1.936,6.484,1.081,9.78c-0.901,3.475-2.848,6.431-5.409,8.908
					c-2.569,2.485-5.578,4.154-8.648,5.911c-0.739,0.423-0.255,1.519,0.549,1.349c7.87-1.663,14.767-8.371,16.327-16.283
					C244.987,216.444,244.614,212.471,242.777,209.004z"/>
				<path style="fill:#D17D96;" d="M247.703,203.512c-0.648-2.056-3.935-1.156-3.22,0.844c2.265,6.335,3.025,12.886,1.778,19.518
					c-1.226,6.52-3.525,12.758-7.223,18.295c-0.633,0.947,0.875,2.123,1.614,1.229c4.467-5.404,7.566-11.987,8.507-18.968
					C250.092,217.518,249.806,210.188,247.703,203.512z"/>
				<path style="fill:#D17D96;" d="M262.305,242.039c-0.627-1.533-1.561-2.955-2.326-4.426c-0.705-1.355-1.354-2.742-1.931-4.157
					c-1.251-3.067-2.109-6.242-2.687-9.501c-1.129-6.361-1.155-12.949,0.096-19.291c0.42-2.127-2.878-2.993-3.265-0.856
					c-1.24,6.848-1.189,13.873,0.366,20.667c0.766,3.346,1.884,6.636,3.209,9.801c1.263,3.018,2.758,6.514,5.087,8.869
					C261.639,243.943,262.675,242.943,262.305,242.039z"/>
			</g>
			<path style="opacity:0.85;fill:#EBC7D2;" d="M213.28,320.842c-21.354-37.972,1.718-68.653,35.007-69.779
				c33.289-1.125,60.977,31.968,37.532,69.779c0,0-23.437-4.552-15.407,19.49H230.63C230.63,340.333,238.887,314.845,213.28,320.842
				z"/>
			<path style="fill:#335E4E;" d="M290.33,285.005c-2.22-9.77-8.8-18.74-17.86-24.14c-9.86-5.89-21.89-7.54-33.25-5
				c-5.69,1.27-11.11,3.61-15.69,6.99c-4.58,3.38-8.25,8.04-10.78,12.91c-2.99,5.76-4.15,12.15-4.01,18.5
				c0.07,3.47,0.72,6.79,1.43,10.18c0.34,1.62,0.46,3.24,0.72,4.86c0.01,0.14,0.04,0.28,0.06,0.42c0.31,1.84,0.8,3.6,1.35,5.38
				c0.14,0.42,0.44,0.66,0.79,0.76c0.16,0.65,0.96,1.26,1.84,0.91c5.05-1.97,11.12-0.9,15.22,2.41c4.91,3.96,5.55,10.66,4.7,16.25
				c-0.14,0.95,0.64,1.46,1.37,1.41c0.16,0.07,0.35,0.11,0.57,0.11c4.91,0,9.82-0.07,14.73-0.08c2.42-0.01,4.83-0.03,7.24-0.02
				c1.21,0.01,2.41,0.02,3.62,0.04c1.19,0.01,2.5,0.19,3.64-0.16c0.66-0.2,0.91-0.77,0.77-1.26c0.21-0.25,0.31-0.56,0.18-0.94
				c-0.41-1.15-0.9-2.22-1.11-3.43c-0.21-1.18-0.23-2.4-0.08-3.59c0.28-2.36,1.22-4.75,2.75-6.66c3.03-3.77,8.65-5.3,13.51-4.43
				c0.42,0.07,0.77-0.03,1.03-0.23c0.24-0.08,0.47-0.24,0.64-0.48c2.13-2.99,3.88-6.21,5.11-9.59c0.63-1.73,1.13-3.51,1.46-5.33
				C291.21,295.695,291.49,290.075,290.33,285.005z M288.47,298.935c-0.45,2.28-1.09,4.53-1.95,6.71c-1.16,2.99-2.73,5.83-4.71,8.43
				c-5.56-0.57-11.1,1.61-14.76,5.55c-1.97,2.12-3.22,4.68-3.63,7.45c-0.34,2.36-0.23,5.18,0.81,7.46c-0.53,0-1.07,0.04-1.59,0.04
				c-1.21,0.02-2.41,0.03-3.62,0.04c-2.5,0.02-5-0.01-7.5-0.02c-4.71-0.01-9.43-0.07-14.15-0.08c0.22-6.17-0.77-12.74-6.01-17.04
				c-4.49-3.67-11.1-4.85-16.72-3.01c-0.47-1.37-0.89-2.75-1.41-4.1c-0.2-0.53-0.42-1.07-0.64-1.61c-0.34-0.84-0.69-1.69-0.93-2.54
				c-0.84-2.91-0.94-6.19-1.04-9.2c-0.2-5.54,0.34-11.09,2.01-16.43c1.62-5.19,4.31-9.89,8.5-13.68c4.03-3.64,8.96-6.69,14.27-8.45
				c10.59-3.53,22.93-2.67,32.73,2.5c8.68,4.58,15.67,12.33,18.75,21.14C288.77,287.505,289.57,293.315,288.47,298.935z"/>
			<path style="fill:#EBC7D2;" d="M305.234,288.313c-0.035-2.121-0.345-4.251-0.769-6.326c-0.854-4.176-2.22-8.201-3.983-12.079
				c-3.408-7.494-8.477-14.415-14.811-19.701c-1.848-1.542-3.8-2.973-5.853-4.23c-2.004-1.228-4.187-2.187-6.298-3.213
				c-1.53-0.744-2.843,1.486-1.32,2.324c3.427,1.886,6.473,4.51,9.349,7.143c2.804,2.566,5.45,5.394,7.709,8.454
				c4.638,6.282,8.069,13.368,9.968,20.948c0.54,2.158,0.945,4.352,1.334,6.541c0.375,2.11,0.436,4.497,1.335,6.455
				c0.461,1.004,2.147,0.999,2.609,0C305.397,292.701,305.269,290.395,305.234,288.313z"/>
			<path style="fill:#EBC7D2;" d="M302.894,301.317c-0.326-0.446-0.969-0.783-1.502-0.414c-1.549,1.071-1.971,3.452-2.542,5.142
				c-0.6,1.775-1.249,3.538-2.055,5.23c-0.814,1.709-1.66,3.393-2.597,5.039c-0.977,1.715-1.967,3.448-3.25,4.951
				c-1.046,1.225,0.597,2.93,1.79,1.79c1.481-1.415,2.999-2.782,4.282-4.384c1.317-1.646,2.528-3.409,3.452-5.308
				c0.903-1.855,1.722-3.789,2.263-5.783C303.207,305.836,304.075,302.931,302.894,301.317z"/>
			<path style="fill:#EBC7D2;" d="M206.255,318.509c-0.693-1.112-1.19-2.338-1.729-3.531c-0.523-1.159-1.044-2.325-1.526-3.505
				c-0.936-2.294-1.758-4.784-2.746-7.121c-0.587-1.388-2.688-0.623-2.695,0.712c-0.015,2.932,0.804,5.581,1.992,8.228
				c0.543,1.21,1.162,2.333,1.916,3.424c0.827,1.197,1.803,2.246,2.718,3.37C205.122,321.236,207.029,319.751,206.255,318.509z"/>
			<path style="fill:#EBC7D2;" d="M215.327,252.267c-1.961,0.985-3.831,2.055-5.539,3.447c-1.712,1.395-3.202,3.1-4.607,4.797
				c-2.693,3.254-4.876,6.901-6.562,10.772c-1.856,4.264-3.112,8.996-3.368,13.654c-0.134,2.437-0.002,4.973,0.343,7.388
				c1.099,7.687,3.72,8.046,3.831-0.667c0.027-2.145,0.211-4.255,0.488-6.381c0.56-4.291,1.562-8.446,3.291-12.427
				c3.04-7.002,8.35-12.728,13.924-17.82C218.484,253.791,217.05,251.401,215.327,252.267z"/>
			<path style="fill:#EBC7D2;" d="M226.672,246.525c-0.276-0.581-0.851-0.967-1.489-1.018c-0.12-0.01-0.239-0.021-0.359-0.029
				c-0.436-0.03-0.728,0.05-1.13,0.21c-0.067,0.027-0.133,0.054-0.199,0.081c-0.25,0.102-0.501,0.196-0.736,0.328
				c-0.486,0.271-0.972,0.543-1.458,0.814c-0.277,0.12-0.504,0.299-0.679,0.536c-0.21,0.199-0.357,0.439-0.442,0.722
				c-0.102,0.268-0.134,0.542-0.095,0.82c-0.008,0.284,0.055,0.554,0.188,0.811c0.267,0.503,0.695,0.956,1.258,1.121
				c0.522,0.153,1.141,0.181,1.632-0.093c0.486-0.271,0.972-0.542,1.458-0.814c0.387-0.216,0.744-0.475,1.102-0.736
				c0.252-0.184,0.484-0.35,0.645-0.644c0.062-0.113,0.118-0.229,0.177-0.343c0.174-0.263,0.273-0.552,0.297-0.866
				C226.863,247.11,226.806,246.81,226.672,246.525z"/>
			<path style="fill:#D17D96;" d="M297.502,393.18c-24.761,0.061-49.508,1.57-74.273,0.885c-6.992-0.194-13.941-0.841-20.936-0.885
				c-3.851-0.024-3.853,6,0,5.977c3.172-0.02,6.307-0.078,9.471-0.308c3.076-0.223,6.139-0.429,9.222-0.514
				c6.143-0.17,12.298-0.279,18.444-0.245c12.375,0.068,24.77,0.3,37.137,0.74c6.977,0.248,13.955,0.311,20.936,0.328
				C301.353,399.166,301.355,393.171,297.502,393.18z"/>
			<path style="fill:#D17D96;" d="M234.047,365.575c-0.266-0.799-1.663-1.008-1.814,0c-0.456,3.049-1.406,5.942-3.219,8.459
				c-1.97,2.736-4.716,4.881-7.386,6.893c-5.109,3.851-10.617,8.268-11.76,14.969c-0.52,3.044,3.866,3.668,4.242,0.547
				c0.782-6.483,7.232-10.797,11.813-14.634C230.373,378.084,236.166,371.949,234.047,365.575z"/>
			<path style="fill:#D17D96;" d="M285.917,386.955c-2.029-2.362-4.508-4.256-6.968-6.14c-4.654-3.565-10.283-7.992-10.546-14.393
				c-0.057-1.381-2.333-1.846-2.536-0.327c-0.903,6.754,3.562,11.979,8.492,15.956c2.517,2.03,5.174,3.908,7.449,6.219
				c0.986,1.002,1.9,2.049,2.596,3.275c0.778,1.368,1.046,2.927,1.822,4.273c1.036,1.798,3.788,1.021,3.835-1.013
				C290.127,391.935,287.688,389.017,285.917,386.955z"/>
			<path style="fill:#D17D96;" d="M237.181,378.805c-0.992,1.428-2.152,2.723-3.269,4.053c-1.178,1.402-2.253,2.884-3.352,4.349
				c-0.962,1.283-2.007,2.584-2.677,4.051c-0.726,1.592-1.346,3.97-0.289,5.55c1.218,1.82,3.873,1.124,4.032-1.065
				c0.053-0.725-0.169-1.238-0.021-1.902c0.127-0.567,0.339-1.118,0.588-1.641c0.646-1.355,1.442-2.645,2.161-3.962
				c1.534-2.808,2.743-5.808,4.376-8.554C239.324,378.686,237.826,377.878,237.181,378.805z"/>
			<path style="fill:#D17D96;" d="M241.781,368.141c-0.246-0.225-0.524-0.366-0.857-0.408c-0.677-0.087-1.489,0.35-1.616,1.078
				c-0.103,0.589-0.206,1.178-0.309,1.767c-0.07,0.402-0.178,0.826-0.193,1.232c-0.011,0.297-0.006,0.603,0.027,0.898
				c0.044,0.395,0.133,0.785,0.443,1.069c0.252,0.23,0.537,0.375,0.877,0.418c0.313,0.04,0.663,0.001,0.938-0.172
				c0.359-0.226,0.577-0.53,0.716-0.931c0.236-0.683,0.284-1.394,0.319-2.11c0.029-0.599,0.058-1.197,0.087-1.796
				C242.23,368.834,242.039,368.378,241.781,368.141z"/>
			<path style="fill:#D17D96;" d="M252.918,373.955c-0.103-1.597-0.46-3.092-0.768-4.656c-0.251-1.271-2.115-0.926-2.167,0.279
				c-0.063,1.462-0.331,2.921-0.504,4.376c-0.154,1.296-0.3,2.583-0.499,3.874c-0.207,1.343-0.435,2.672-0.734,3.998
				c-0.316,1.404-0.957,2.958-0.916,4.398c0.037,1.307,1.883,2.366,2.841,1.177c1.015-1.262,1.437-3.034,1.816-4.594
				c0.357-1.471,0.633-2.983,0.795-4.489C252.937,376.882,253.011,375.397,252.918,373.955z"/>
			<path style="fill:#D17D96;" d="M248.362,391.289c-0.233-0.213-0.495-0.346-0.809-0.386c-0.289-0.037-0.612-0.001-0.866,0.159
				c-0.099,0.076-0.198,0.151-0.297,0.227c-0.177,0.178-0.298,0.389-0.363,0.632c-0.179,0.445-0.357,0.889-0.536,1.334
				c-0.088,0.219-0.179,0.433-0.243,0.66c-0.101,0.354-0.115,0.732-0.151,1.099c-0.008,0.224,0.038,0.435,0.137,0.631
				c0.067,0.217,0.186,0.404,0.357,0.563c0.12,0.091,0.24,0.183,0.36,0.275c0.192,0.118,0.399,0.182,0.619,0.192
				c0.35,0.045,0.741,0.001,1.047-0.192c0.12-0.091,0.24-0.183,0.36-0.275c0.215-0.216,0.361-0.471,0.439-0.765
				c0.076-0.224,0.157-0.439,0.192-0.673c0.055-0.369,0.086-0.727,0.102-1.098c0.02-0.465,0.04-0.931,0.059-1.396
				C248.784,391.942,248.607,391.514,248.362,391.289z"/>
			<path style="fill:#D17D96;" d="M262.397,374.997c-0.124-0.539-0.264-1.058-0.438-1.583c-0.178-0.537-0.333-1.089-0.546-1.613
				c-0.066-0.164-0.137-0.325-0.207-0.487c-0.014-0.032-0.082-0.212-0.084-0.213c-0.086-0.244-0.168-0.49-0.252-0.735
				c-0.182-0.53-0.643-0.887-1.218-0.813c-0.511,0.065-1.019,0.541-0.972,1.095c0.047,0.559,0.053,1.111,0.081,1.669
				c0.025,0.516,0.098,1.035,0.147,1.55c0.059,0.624,0.143,1.236,0.26,1.851c0.125,0.659,0.385,1.237,0.704,1.824
				c0.285,0.526,0.998,0.846,1.58,0.666c0.634-0.196,0.996-0.712,1.049-1.36C262.552,376.209,262.542,375.63,262.397,374.997z"/>
			<path style="fill:#D17D96;" d="M270.44,393.213c-0.226-0.679-0.497-1.343-0.877-1.952c-0.749-1.199-1.756-2.196-2.656-3.275
				c-1.458-1.749-2.597-4.022-3.522-6.208c-0.402-0.951-1.683-0.358-1.753,0.463c-0.21,2.455,0.557,5.125,1.934,7.164
				c0.687,1.017,1.596,1.993,2.271,2.927c0.177,0.246,0.345,0.5,0.497,0.762c0.136,0.234,0.279,0.516,0.331,0.655
				c0.217,0.575,0.095,1.352,0.465,2.063c0.642,1.235,2.668,1.288,3.295,0C270.865,394.907,270.744,394.127,270.44,393.213z"/>
			<path style="fill:#D17D96;" d="M315.826,288.643c-0.277-1.374-0.858-2.66-1.232-4.006c-0.244-0.879-1.463-0.509-1.338,0.351
				c0.171,1.181,0.043,2.382,0.004,3.568c-0.039,1.189-0.033,2.369-0.135,3.556c-0.192,2.237-0.245,4.454-0.634,6.673
				c-0.794,4.528-2.289,8.928-4.306,13.055c-4.147,8.484-10.399,15.69-17.136,22.221c-1.895,1.836-3.835,3.625-5.797,5.389
				c-1.033,0.928-2.05,1.885-3.027,2.872c-1.009,1.019-1.785,2.099-2.666,3.221c-0.551,0.701,0.123,1.843,1.013,1.331
				c1.078-0.62,2.128-1.151,3.137-1.887c0.999-0.73,1.967-1.506,2.919-2.297c1.971-1.638,3.852-3.403,5.72-5.156
				c3.672-3.445,7.212-7.051,10.382-10.968c6.11-7.553,11.003-16.258,12.847-25.884c0.492-2.569,0.917-5.316,0.799-7.94
				C316.311,291.382,316.094,289.975,315.826,288.643z"/>
			<path style="fill:#D17D96;" d="M312.888,275.776c-0.121-0.739-0.298-1.436-0.518-2.154c-0.45-1.475-1.036-2.951-1.741-4.324
				c-0.659-1.284-1.382-2.515-2.206-3.701c-0.895-1.287-1.938-2.448-2.948-3.645c-0.892-1.057-2.623,0.301-1.922,1.464
				c0.723,1.199,1.284,2.462,1.905,3.714c0.638,1.288,1.257,2.596,1.83,3.914c0.555,1.276,1.11,2.551,1.665,3.827
				c0.275,0.632,0.509,1.282,0.828,1.893c0.358,0.687,0.585,1.496,1.351,1.841c0.626,0.282,1.237,0.129,1.63-0.449
				C313.258,277.429,313.019,276.576,312.888,275.776z"/>
			<path style="fill:#D17D96;" d="M277.907,348.776c-0.756-0.691-1.745-0.644-2.503,0c-1.531,1.302-2.967,2.726-4.22,4.3
				c-0.683,0.858-1.374,1.736-1.921,2.691c-0.539,0.941-0.935,1.978-1.265,3.008c-0.394,1.232,1.374,2.286,2.237,1.284
				c0.615-0.715,1.238-1.423,1.828-2.158c0.149-0.185,0.289-0.377,0.432-0.567c0.014-0.018,0.078-0.105,0.127-0.17
				c0.037-0.048,0.089-0.116,0.1-0.131c0.148-0.19,0.296-0.381,0.442-0.574c0.015-0.02,0.091-0.121,0.14-0.187
				c0.035-0.045,0.073-0.095,0.083-0.108c0.161-0.206,0.324-0.41,0.489-0.612c1.242-1.519,2.57-2.958,4.029-4.271
				C278.596,350.659,278.587,349.398,277.907,348.776z"/>
			<path style="fill:#D17D96;" d="M203.29,326.651c-9.8-10.225-15.627-24.036-14.757-38.302c0.114-1.868-3.043-2.326-3.297-0.425
				c-2.032,15.187,3.322,31.563,15.336,41.445C202.449,330.913,205.034,328.471,203.29,326.651z"/>
			<path style="fill:#D17D96;" d="M209.814,335.649c-0.094-0.353-0.27-0.66-0.528-0.919c-0.588-0.756-1.196-1.496-1.798-2.241
				c-0.199-0.214-0.434-0.364-0.707-0.449c-0.246-0.125-0.511-0.183-0.793-0.173c-0.282-0.01-0.546,0.047-0.793,0.173
				c-0.273,0.085-0.508,0.234-0.707,0.449c-0.115,0.151-0.23,0.302-0.345,0.452c-0.183,0.325-0.275,0.674-0.276,1.048
				c0.023,0.179,0.046,0.359,0.069,0.538c0.098,0.37,0.282,0.69,0.552,0.962c0.641,0.705,1.276,1.416,1.93,2.109
				c0.19,0.205,0.415,0.348,0.676,0.429c0.236,0.12,0.488,0.175,0.758,0.165c0.27,0.01,0.522-0.045,0.758-0.165
				c0.261-0.081,0.486-0.224,0.676-0.429c0.11-0.144,0.22-0.288,0.33-0.432c0.175-0.311,0.263-0.645,0.264-1.001
				C209.858,335.992,209.836,335.821,209.814,335.649z"/>
			<path style="fill:#D17D96;" d="M219.709,240.246c-6.628,2.522-12.634,6.509-17.794,11.352
				c-5.208,4.887-9.83,10.652-12.773,17.206c-0.839,1.867-1.599,3.749-2.105,5.734c-0.509,1.997-0.595,4.065-0.88,6.103
				c-0.182,1.3,1.548,1.8,1.995,0.523c0.556-1.588,1.438-2.997,2.129-4.515c0.713-1.566,1.442-3.129,2.184-4.681
				c1.445-3.025,3.075-5.93,4.879-8.755c3.583-5.612,8.21-10.583,13.519-14.598c3.072-2.324,6.368-4.29,9.792-6.044
				C221.908,241.929,221.064,239.731,219.709,240.246z"/>
			<path style="fill:#EBC7D2;" d="M257.403,188.708c-1.259-0.461-2.718-0.233-4.039-0.202c-1.413,0.033-2.825,0.07-4.238,0.069
				c-2.909-0.003-5.817-0.005-8.726-0.051c-5.744-0.092-11.46-0.462-17.203-0.065c-1.79,0.124-1.791,2.657,0,2.781
				c5.742,0.397,11.459,0.027,17.203-0.065c2.826-0.045,5.651-0.048,8.477-0.051c1.414-0.002,2.825,0.03,4.238,0.063
				c1.396,0.032,2.958,0.291,4.288-0.196C258.537,190.575,258.539,189.125,257.403,188.708z"/>
			<path style="fill:#EBC7D2;" d="M274.579,188.916c-2.086-0.271-4.201-0.21-6.303-0.28c-2.093-0.07-4.275-0.264-6.339,0.144
				c-1.197,0.237-1.198,2.151,0,2.388c2.064,0.408,4.246,0.214,6.339,0.144c2.102-0.07,4.217-0.01,6.303-0.28
				C275.641,190.895,275.641,189.054,274.579,188.916z"/>
			<g>
				<path style="fill:#467362;" d="M226.401,175.387c-1.123-0.296-2.292-0.358-3.445-0.433c-0.56-0.036-1.111-0.053-1.672-0.047
					c-0.565,0.006-1.111,0.064-1.672,0.131c-0.634,0.076-1.254,0.51-1.224,1.224c0.031,0.727,0.542,1.142,1.224,1.224
					c0.561,0.067,1.107,0.126,1.672,0.131c0.561,0.005,1.113-0.011,1.672-0.047c1.154-0.075,2.322-0.138,3.445-0.433
					C227.275,176.906,227.276,175.617,226.401,175.387z"/>
				<path style="fill:#467362;" d="M264.743,175.262c-2.856-0.286-5.789-0.066-8.661-0.087c-2.975-0.022-5.949-0.054-8.923-0.066
					c-5.858-0.024-11.731-0.102-17.585,0.142c-1.464,0.061-1.464,2.095,0,2.156c5.854,0.244,11.726,0.166,17.585,0.142
					c2.887-0.012,5.774-0.04,8.661-0.064c2.958-0.025,5.982,0.204,8.923-0.09C266.189,177.25,266.19,175.406,264.743,175.262z"/>
				<path style="fill:#467362;" d="M280.985,175.227c-0.968-0.565-2.1-0.456-3.179-0.451c-0.924,0.004-1.844,0.028-2.767,0.063
					c-1.95,0.074-3.894,0.1-5.829,0.367c-1.127,0.155-1.127,2.09,0,2.245c1.935,0.266,3.879,0.293,5.829,0.367
					c0.923,0.035,1.844,0.059,2.767,0.063c1.079,0.005,2.211,0.113,3.179-0.451C281.823,176.94,281.823,175.716,280.985,175.227z"/>
			</g>
			<g>
				<path style="fill:#335E4E;" d="M250.273,276.77c-0.009,0.001-0.013,0.003-0.02,0.004c0.001,0,0.003,0,0.004,0
					C250.263,276.773,250.267,276.771,250.273,276.77z"/>
			</g>
			<g>
				<g>
					<path style="fill:#335E4E;" d="M270.55,284.155c-0.62-1.17-1.83-1.83-3.06-1.57c-1.34,0.28-2.28,1.46-2.23,2.96
						c0.04,1.33,1.95,1.2,2.07-0.06c0.05-0.5,0.38-0.83,0.82-0.93c0.59-0.13,0.94,0.43,1.15,0.96c0.62,1.59-0.85,2.94-2.07,3.42
						c-1.55,0.61-3.37,0.73-4.77-0.33c-1.13-0.86-1.89-2.49-1.6-4.02c0.25-1.39,1.39-2.41,2.63-2.45c0.19,0.03,0.38,0.06,0.58,0.06
						c1.35-0.01,1.61-2.12,0.22-2.33c-1.1-0.17-2.66-0.88-2.33-2.44c0.27-1.28,1.87-1.5,2.22-0.18c0.28,1.06,1.8,0.36,1.46-0.71
						c-0.35-1.13-1.39-1.82-2.45-1.83c-1.12-0.01-2.09,0.71-2.56,1.82c-0.21,0.5-0.31,1.01-0.32,1.52c-0.02,0-0.03,0-0.05,0.01
						c-1.12,0.46-2.3,0.09-3.04-0.91c-0.41-0.55-1.2-0.25-1.29,0.43c-0.13,0.99-0.02,1.97-0.15,2.96c-0.14,1.04-0.48,2.04-1.06,2.89
						c-0.63,0.92-1.26,1.81-1.96,2.64c0-1.02-0.01-2.05-0.02-3.08c-0.01-1.35,0.08-2.89-0.83-3.94c-0.45-0.51-0.97-0.73-1.52-0.86
						c0.31-1.23,0.42-2.52-0.18-3.66c-0.65-1.24-1.95-2.07-3.26-1.58c-1.22,0.45-2.04,1.71-2.1,3.11c0,0.15,0.01,0.29,0.02,0.44
						c-0.27-0.64-1.23-0.89-1.72-0.21c-1.04,1.47-2.03,3.01-1.96,4.94c0.06,1.7,0.89,3.32,2.42,3.86c3.13,1.1,5.15-2.27,6.18-5.03
						c0.28,0.01,0.57,0.04,0.75,0.18c0.33,0.26,0.36,0.82,0.37,1.23c0.09,2.33-0.14,4.74-0.21,7.07c-0.03,1.06,0.92,1.56,1.7,1.01
						c1.76-1.26,3.29-3.12,3.9-5.37c0.29-1.06,0.59-2.12,0.82-3.2c0.13-0.58,0.25-1.11,0.32-1.65c0.97,0.55,2.08,0.67,3.18,0.36
						c0.14,0.34,0.32,0.66,0.53,0.95c-1.01,0.67-1.81,1.71-2.16,2.97c-0.72,2.54,0.38,5.43,2.41,6.81c2.17,1.49,5.09,1.47,7.23-0.11
						C270.39,289.015,271.74,286.395,270.55,284.155z M246.69,282.015c-0.88,0.72-2.37,0.86-2.74-0.54
						c-0.37-1.38,0.39-2.98,0.91-4.19c0.05-0.13,0.07-0.25,0.08-0.36c0.24,1.15,1.02,2.1,1.99,2.64c0.39,0.21,0.79,0.33,1.2,0.4
						C247.76,280.785,247.27,281.535,246.69,282.015z M248.86,277.725c-0.02,0.06-0.03,0.12-0.05,0.18
						c-0.16-0.04-0.33-0.08-0.49-0.14c-1-0.35-2.1-1.6-1.19-2.73c0.42-0.53,0.99-0.32,1.36,0.16
						C249.01,275.895,249.03,276.875,248.86,277.725z"/>
					<path style="fill:#335E4E;" d="M259.77,265.505c-2.65-4.93-8.97-4.96-12.96-2.16c-5.05,3.55-7.11,10-9.25,15.8
						c-0.58,1.59-1.15,3.18-1.86,4.71c-0.13,0.29-0.27,0.59-0.41,0.9c-0.86-0.4-1.68-0.74-2.45-0.94c-1.79-0.45-4-0.37-4.87,1.76
						c-0.79,1.97,0.31,4.21,2.07,4.9c2.56,1.01,4.56-0.41,6.12-2.62c1.85,1.15,3.68,2.29,5.85,2.69c2.76,0.51,5.47-0.24,7.25-2.74
						c0.69-0.97-0.62-2.27-1.45-1.45c-3,2.98-6.86,1.2-10.42-0.57c1.18-2.31,2.02-4.89,2.57-6.6c1.92-5.85,4.04-12.96,9.86-15.38
						c2.9-1.21,6.74-0.68,8.41,2.48c0.91,1.74,0.79,3.91-0.72,5.19c-1.49,1.26-3.29,0.97-5.02,0.73c-1.18-0.17-1.65,1.94-0.46,2.28
						c2.46,0.71,5.34,0.23,7.18-1.84C260.96,270.675,261,267.795,259.77,265.505z M232.88,287.995c-1.16,0.75-3.46,0.65-3.38-1.35
						c0.07-2.02,2.67-1.04,3.62-0.57c0.37,0.19,0.73,0.38,1.09,0.59C233.83,287.195,233.4,287.655,232.88,287.995z"/>
				</g>
			</g>
			<g>
				<path style="fill:#335E4E;" d="M237.62,300.365c-0.64,0.06-1.29,0.49-1.87,0.77c-0.07,0.04-0.14,0.08-0.21,0.11
					c0.05-0.2,0.08-0.41,0.07-0.62c-0.01-0.27-0.07-0.55-0.19-0.78c-0.94-1.79-3.77-0.35-4.74,0.62c-0.63,0.63-1.18,1.38-1.51,2.22
					v0.01c-0.14,0.33-0.25,0.66-0.31,1c-0.38,2.08,0.69,4.23,2.83,4.75c2.14,0.52,4.88-0.75,5.7-2.77c0.14-0.34-0.43-0.56-0.6-0.24
					c-0.51,1.01-1.73,1.61-2.84,1.57c-1.09-0.03-2.17-0.77-2.7-1.71c-0.11-0.2-0.2-0.41-0.29-0.63c0.47-0.32,0.92-0.65,1.41-0.95
					c0.22-0.14,0.45-0.27,0.68-0.41c0.18-0.09,0.36-0.19,0.54-0.29c0.29-0.12,0.57-0.27,0.84-0.43c0.77-0.4,1.54-0.81,2.31-1.22
					c0.24-0.11,0.47-0.23,0.68-0.37c0.08-0.04,0.15-0.07,0.22-0.11c0.06-0.04,0.1-0.09,0.11-0.14c0.01-0.01,0.02-0.01,0.02-0.02
					C237.9,300.605,237.81,300.345,237.62,300.365z M233.82,302.075c-0.07,0.06-0.14,0.12-0.21,0.18c-0.16,0.08-0.31,0.17-0.47,0.26
					c-0.49,0.23-0.98,0.46-1.47,0.69c-0.29,0.14-0.63,0.26-0.96,0.41c-0.05-0.53,0.01-1.06,0.21-1.54c0.03-0.09,0.07-0.17,0.11-0.25
					c0.29-0.54,0.76-1.01,1.3-1.31c0.37-0.21,0.89-0.43,1.35-0.34c0.19,0.28,0.31,0.59,0.33,0.92
					C234.04,301.425,233.98,301.765,233.82,302.075z"/>
				<path style="fill:#335E4E;" d="M249.183,306.27c-0.338-0.009-0.637,0.044-0.956,0.16c-0.095,0.034-0.192,0.073-0.29,0.11
					c-0.205,0.043-0.41,0.091-0.615,0.137c-0.379-0.009-0.388-0.319-0.395-0.645c-0.01-0.424-0.008-0.848-0.007-1.272
					c0.002-1.696,0.117-3.39,0.105-5.086c-0.002-0.248-0.26-0.484-0.514-0.397c-0.851,0.29-1.69,0.556-2.493,0.969
					c-0.375,0.193-0.053,0.74,0.32,0.564c0.372-0.174,0.763-0.34,1.163-0.472c-0.006,0.9-0.003,1.801-0.027,2.7
					c-0.026,1.022-0.087,2.037-0.061,3.06c0.019,0.737,0.168,1.689,1.118,1.651c0.439-0.017,0.858-0.236,1.262-0.39
					c0.489-0.185,0.964-0.41,1.454-0.591C249.508,306.672,249.485,306.278,249.183,306.27z"/>
				<path style="fill:#335E4E;" d="M246.974,296.314c-0.216-0.077-0.409-0.232-0.537-0.422c-0.067-0.1-0.123-0.212-0.172-0.321
					c-0.026-0.058-0.04-0.12-0.064-0.179c-0.013-0.031-0.03-0.057-0.045-0.087c-0.005-0.01-0.007-0.01-0.009-0.009
					c0-0.008,0.001-0.013,0-0.032c0-0.004-0.003-0.005-0.004-0.008c0.038-0.191-0.167-0.26-0.291-0.161
					c-0.062,0.03-0.116,0.079-0.125,0.169c-0.001,0.007-0.004,0.014-0.005,0.02c-0.225,0.468-0.631,0.852-1.105,1.054
					c-0.184,0.078-0.171,0.379,0,0.462c0.619,0.297,0.99,0.931,0.929,1.618c-0.043,0.404,0.64,0.421,0.643,0
					c-0.006-0.324,0.042-0.635,0.2-0.921c0.157-0.285,0.376-0.517,0.651-0.692C247.243,296.672,247.193,296.392,246.974,296.314z"/>
				<path style="fill:#335E4E;" d="M265.367,306.27c-0.338-0.009-0.637,0.044-0.956,0.16c-0.095,0.034-0.192,0.073-0.29,0.11
					c-0.206,0.043-0.41,0.091-0.615,0.137c-0.379-0.009-0.388-0.319-0.396-0.645c-0.01-0.424-0.008-0.848-0.007-1.272
					c0.002-1.696,0.117-3.39,0.105-5.086c-0.002-0.248-0.26-0.484-0.514-0.397c-0.851,0.29-1.69,0.556-2.493,0.969
					c-0.375,0.193-0.053,0.74,0.32,0.564c0.372-0.174,0.763-0.34,1.163-0.472c-0.006,0.9-0.003,1.801-0.026,2.7
					c-0.026,1.022-0.087,2.037-0.061,3.06c0.019,0.737,0.168,1.689,1.118,1.651c0.439-0.017,0.858-0.236,1.262-0.39
					c0.489-0.185,0.964-0.41,1.454-0.591C265.693,306.672,265.669,306.278,265.367,306.27z"/>
				<path style="fill:#335E4E;" d="M263.158,296.314c-0.216-0.077-0.409-0.232-0.537-0.422c-0.067-0.1-0.123-0.212-0.172-0.321
					c-0.026-0.058-0.04-0.12-0.064-0.179c-0.013-0.031-0.03-0.057-0.045-0.087c-0.005-0.01-0.007-0.01-0.009-0.009
					c0-0.008,0.001-0.013,0-0.032c0-0.004-0.003-0.005-0.004-0.008c0.038-0.191-0.167-0.26-0.291-0.161
					c-0.062,0.03-0.116,0.079-0.125,0.169c-0.001,0.007-0.004,0.014-0.005,0.02c-0.225,0.468-0.631,0.852-1.105,1.054
					c-0.184,0.078-0.171,0.379,0,0.462c0.619,0.297,0.99,0.931,0.929,1.618c-0.043,0.404,0.64,0.421,0.643,0
					c-0.006-0.324,0.042-0.635,0.2-0.921c0.157-0.285,0.376-0.517,0.651-0.692C263.428,296.672,263.378,296.392,263.158,296.314z"/>
				<path style="fill:#335E4E;" d="M243.79,306.085c-0.31,0.17-0.62,0.31-0.93,0.46c-0.4,0.1-0.82,0.09-1.22-0.09
					c-0.25-0.11-0.46-0.28-0.6-0.5c-0.04-0.14-0.06-0.3-0.08-0.45c-0.1-1.15-0.12-2.31-0.13-3.46c-0.01-0.9,0.05-1.8,0.13-2.7
					c0.02-0.24,0.04-0.49,0.06-0.74c0.05-0.55,0.1-1.11,0.16-1.66c0.07-0.59,0.01-1.62,0.73-1.8c0.04-0.01,0.08-0.04,0.11-0.07
					c0.01,0,0.03,0,0.04-0.01c0.14-0.05,0.24-0.15,0.24-0.31c0-0.13-0.1-0.28-0.24-0.31c-0.29-0.05-0.62,0.02-0.92,0.04
					c-0.3,0.02-0.6,0.03-0.91,0.05c-0.6,0.04-1.21,0.08-1.82,0.12c-0.23,0.02-0.43,0.19-0.43,0.43c0,0.22,0.2,0.46,0.43,0.43
					c0.22-0.02,0.44-0.05,0.66-0.07c0.26,0.29,0.21,0.96,0.19,1.3c-0.02,0.47-0.03,0.93-0.04,1.4c-0.02,0.52-0.03,1.04-0.04,1.57
					c-0.02,0.47-0.03,0.95-0.04,1.42c-0.06,1.94-0.16,3.88-0.22,5.82c-0.27,0-0.37,0.4-0.08,0.48c0.4,0.09,0.73,0.36,1.11,0.51
					c0.43,0.18,0.83,0.17,1.27,0.01c0.99-0.36,1.97-0.79,2.9-1.29C244.5,306.465,244.17,305.885,243.79,306.085z"/>
				<path style="fill:#335E4E;" d="M259.02,305.525c-0.16-0.06-0.33,0.01-0.46,0.08c-0.15,0.09-0.3,0.18-0.44,0.28h-0.04
					c-0.22,0.03-0.43,0.02-0.64-0.02c-0.42-0.08-0.82-0.29-1.15-0.56c-0.67-0.57-1.07-1.4-1.35-2.21c-0.08-0.22-0.15-0.45-0.22-0.68
					v-0.01c-0.1-0.33-0.19-0.67-0.3-1c-0.1-0.35-0.22-0.7-0.36-1.04c-0.32-0.74-0.87-1.39-1.71-1.46c-0.01-0.01-0.01-0.02-0.02-0.03
					c-0.16-0.09-0.3-0.04-0.45,0.02c-0.13,0.06-0.25,0.11-0.37,0.17c-0.24,0.11-0.48,0.22-0.71,0.35c-0.47,0.25-0.92,0.52-1.35,0.84
					c-0.1,0.08-0.16,0.21-0.09,0.33c0.06,0.11,0.22,0.15,0.33,0.09c0.15-0.09,0.75-0.41,0.9-0.49c0.81,0.05,1.38,0.65,1.75,1.35
					c0.37,0.68,0.66,1.4,0.97,2.11c0.05,0.13,0.11,0.25,0.16,0.37c0.07,0.15,0.14,0.31,0.21,0.46c0.3,0.7,0.61,1.39,0.92,2.09
					c0.27,0.58,0.53,1.17,1.22,1.33c0.01,0,0.01,0,0.02,0c0.08,0.05,0.17,0.06,0.28,0.01c1.03-0.55,1.58-0.91,2.56-1.53
					c0.22-0.14,0.6-0.34,0.51-0.66C259.15,305.605,259.11,305.565,259.02,305.525z"/>
				<path style="fill:#335E4E;" d="M258.683,298.827c-0.015-0.008-0.025-0.02-0.043-0.027c-1.029-0.389-2.142-0.034-2.93,0.686
					c-0.767,0.701-1.169,1.619-1.565,2.546c-0.353,0.577-0.642,1.204-0.914,1.786c-0.032,0.068-0.064,0.135-0.096,0.203
					c-0.369,0.6-0.772,1.18-1.177,1.748c-0.369,0.517-0.765,1.016-1.176,1.501c-0.32,0.377-0.884,1.221-1.46,1.207
					c0.055-0.271,0.11-0.543,0.176-0.812c0.024-0.099-0.027-0.204-0.122-0.241c-0.086-0.034-0.215-0.008-0.256,0.087
					c-0.146,0.343-0.281,0.69-0.399,1.043c-0.056,0.168-0.109,0.336-0.16,0.505c-0.025,0.085-0.049,0.169-0.073,0.254
					c-0.013,0.048-0.03,0.097-0.04,0.146c-0.022,0.11,0.001,0.188,0.046,0.288c0.067,0.152,0.245,0.19,0.389,0.144
					c0.066,0.031,0.141,0.045,0.223,0.022c2.027-0.574,3.226-2.591,4.078-4.369c0.516-1.078,0.964-2.194,1.587-3.218
					c0.486-0.798,1.609-2.007,2.62-1.204c0.026,0.021,0.054,0.029,0.081,0.042c-0.022,0.121,0.045,0.247,0.168,0.279
					c0.136,0.036,0.242-0.05,0.289-0.169c0.141-0.356,0.275-0.716,0.433-1.066c0.081-0.179,0.166-0.355,0.257-0.53
					c0.049-0.095,0.11-0.192,0.164-0.29c0.048-0.055,0.076-0.125,0.084-0.202c0.006-0.02,0.02-0.039,0.025-0.059
					C258.925,298.963,258.815,298.85,258.683,298.827z"/>
				<path style="fill:#335E4E;" d="M270.12,306.525c-0.53,0.18-1.05,0.2-1.06-0.49c-0.02-0.58,0.02-1.17,0.03-1.75
					c0.01-0.53,0.02-1.05,0.03-1.58c0.01-0.43,0.02-0.85,0.03-1.28v-0.24c0.01-0.14,0.01-0.27,0.01-0.41
					c0.01-0.64,0.16-1.88-0.82-1.86c-0.47,0.01-0.94,0.36-1.34,0.56c-0.53,0.26-1.07,0.53-1.6,0.8c-0.01,0-0.01,0.01-0.02,0.01
					c-0.37,0.21-0.02,0.81,0.37,0.59c0.03-0.01,0.06-0.03,0.1-0.05c0.01,0,0.03,0.01,0.04,0.01c1.43-0.23,1.43,1.89,1.46,2.8
					c0.03,1.38-0.24,2.77-0.57,4.11c-0.01,0.07-0.01,0.13,0.01,0.19c-0.01,0.21,0.16,0.44,0.43,0.37c1.09-0.25,2.15-0.67,3.13-1.22
					C270.65,306.925,270.46,306.425,270.12,306.525z"/>
				<path style="fill:#335E4E;" d="M273.97,299.975c-0.22,0.24-0.59,0.62-0.95,0.46c-0.22-0.1-0.34-0.36-0.46-0.56
					c-0.31-0.5-0.64-0.84-1.27-0.75c-0.31,0.05-0.6,0.16-0.82,0.37c-0.25,0.26-0.44,0.59-0.63,0.89c-0.14,0.22-0.27,0.45-0.41,0.67
					c-0.05,0.05-0.1,0.11-0.14,0.17c-0.01,0.01-0.01,0.01-0.02,0.02c-0.04,0.06-0.08,0.12-0.12,0.18c-0.15,0.23-0.27,0.48-0.39,0.73
					c-0.11,0.19-0.23,0.37-0.34,0.56c-0.02,0.04-0.02,0.07-0.02,0.11c-0.04,0.05-0.06,0.1-0.1,0.15c-0.21,0.27,0.13,0.63,0.39,0.38
					c0.2-0.18,0.33-0.41,0.43-0.65c0.13-0.28,0.22-0.57,0.35-0.85c0.09-0.16,0.19-0.31,0.28-0.46c0.02-0.02,0.03-0.03,0.05-0.04
					c0.17-0.17,0.4-0.29,0.64-0.24c0.27,0.07,0.47,0.43,0.71,0.58c0.01,0.01,0.01,0.02,0.02,0.02c0.26,0.16,0.55,0.22,0.85,0.21
					c0.3-0.01,0.59-0.09,0.85-0.23c0.43-0.23,0.75-0.58,1.03-0.97c0.16-0.11,0.32-0.24,0.46-0.36
					C274.63,300.125,274.2,299.705,273.97,299.975z"/>
			</g>
			<g>
				<path style="fill:#A87E3E;" d="M286.003,295.606c-0.271-0.188-0.768-0.059-0.9,0.248c-0.011,0.025-0.013,0.05-0.022,0.075
					c-0.107,0.081-0.204,0.174-0.272,0.285c-0.215,0.349-0.201,0.702-0.043,1.068c0.056,0.13,0.173,0.224,0.306,0.285
					c-0.031,0.106-0.053,0.215-0.088,0.32c-0.175,0.515-0.423,1.004-0.717,1.461c-0.332,0.516-0.742,0.994-1.198,1.42
					c0.042-0.203,0.097-0.403,0.133-0.608c0.28-1.579,0.418-3.181,0.437-4.784c0.696-0.949,1.225-1.988,1.573-3.127
					c0.205-0.671,0.337-1.358,0.42-2.054c0.042-0.353,0.074-0.706,0.085-1.06c0.003-0.089,0.005-0.178,0.008-0.268
					c0.241-0.086,0.444-0.268,0.521-0.538c0.115-0.405-0.151-0.829-0.522-0.972c-0.028-0.036-0.049-0.074-0.083-0.108
					c-0.206-0.207-0.63-0.247-0.829,0c-0.072,0.09-0.131,0.193-0.179,0.301c-0.132,0.1-0.225,0.252-0.226,0.466
					c-0.001,0.169-0.002,0.339-0.003,0.508c-0.001,0.252,0.183,0.481,0.416,0.574c0.082,1.691-0.402,3.417-1.195,4.941
					c-0.016-0.441-0.029-0.882-0.066-1.322c-0.12-1.422-0.343-2.831-0.66-4.217c0.464-1.418,0.688-2.877,0.678-4.373
					c-0.005-0.766-0.062-1.535-0.191-2.29c-0.032-0.185-0.086-0.362-0.129-0.542c0.247-0.25,0.362-0.631,0.258-0.97
					c-0.005-0.196-0.107-0.386-0.376-0.483c-0.007-0.003-0.013,0-0.02-0.002c-0.008-0.004-0.016-0.008-0.024-0.013
					c-0.014-0.008-0.022-0.021-0.037-0.029c-0.139-0.072-0.285-0.087-0.422-0.065c-0.951,0.003-1.35,1.463-0.274,1.786
					c0.061,0.018,0.114,0.011,0.172,0.018c0.007,0.038,0.016,0.078,0.021,0.114c0.281,1.825,0.261,3.658-0.021,5.47
					c-0.281-1.004-0.595-1.999-0.982-2.967c-0.291-1.732-0.603-3.459-0.922-5.186c-0.179-0.968-0.32-1.943-0.473-2.916
					c-0.075-0.478-0.174-0.946-0.322-1.398c0.156-0.386,0.124-0.857-0.205-1.198c-0.036-0.038-0.08-0.048-0.12-0.076
					c-0.11-0.208-0.324-0.369-0.556-0.355c-0.197,0.011-0.381,0.034-0.576,0.065c-0.223,0.035-0.41,0.257-0.464,0.464
					c-0.041,0.158-0.037,0.306-0.015,0.448c-0.017,0.076-0.04,0.149-0.041,0.235c-0.007,0.482,0.313,0.952,0.794,1.063
					c0.073,0.017,0.138,0.009,0.206,0.012c0.129,0.387,0.222,0.789,0.314,1.193c0.22,0.97,0.434,1.942,0.62,2.919
					c0.106,0.556,0.215,1.11,0.323,1.664c-0.266-0.487-0.545-0.967-0.842-1.438c-0.682-1.084-1.399-2.16-2.124-3.216
					c-0.379-0.552-0.777-1.094-1.195-1.617c-0.23-0.287-0.484-0.55-0.738-0.813c-0.063-0.536-0.4-1.038-0.93-1.226
					c-0.842-0.299-1.593,0.222-1.902,0.986c-0.201,0.497,0.281,0.901,0.742,0.924c0.27,0.443,0.753,0.77,1.207,0.722
					c1.263,1.271,2.699,2.365,3.717,3.882c0.722,1.076,1.359,2.208,1.925,3.375c-0.441-0.478-0.924-0.921-1.451-1.315
					c-0.799-0.598-1.715-1.027-2.676-1.294c-0.267-0.074-0.525-0.117-0.786-0.15c0.044-0.137,0.064-0.285,0.045-0.438
					c-0.063-0.52-0.527-0.963-1.056-0.911c-0.806-0.291-1.556,0.923-0.878,1.59c0.113,0.111,0.237,0.171,0.364,0.208
					c0.11,0.09,0.237,0.164,0.387,0.202c0.165,0.042,0.323,0.037,0.468,0c0.513,0.19,1.043,0.323,1.55,0.53
					c1.108,0.452,2.182,1.086,3.076,1.884c1.006,0.899,1.811,2.07,2.308,3.323c0.005,0.011,0.016,0.013,0.021,0.024
					c-0.258-0.243-0.536-0.464-0.833-0.644c-0.674-0.406-1.437-0.584-2.219-0.466c-0.104,0.016-0.203,0.052-0.304,0.079
					c-0.002-0.166-0.04-0.333-0.129-0.483c-0.27-0.456-0.919-0.626-1.365-0.338c-0.004,0.003-0.007,0.008-0.011,0.01
					c-0.306,0.051-0.572,0.281-0.567,0.673c0.004,0.338,0.171,0.625,0.432,0.803c0.22,0.251,0.569,0.396,0.922,0.312
					c0.102-0.024,0.19-0.07,0.273-0.123c0.256,0.003,0.504-0.067,0.759-0.086c0.261-0.019,0.519,0.01,0.771,0.078
					c0.487,0.131,0.958,0.354,1.354,0.667c0.487,0.385,0.877,0.898,1.225,1.408c0.15,0.221,0.304,0.44,0.455,0.661
					c0.238,1.119,0.402,2.25,0.492,3.387c-0.661-0.709-1.526-1.224-2.497-1.36c-0.32-0.045-0.613-0.036-0.921-0.009
					c-0.007-0.065-0.011-0.13-0.032-0.196c-0.128-0.411-0.493-0.648-0.869-0.678c-0.186-0.072-0.395-0.062-0.607,0.025
					c-0.86,0.354-0.67,1.677,0.154,1.934c0.332,0.104,0.661,0.027,0.915-0.151c0.378,0.078,0.795,0.036,1.174,0.086
					c1.017,0.132,2.017,0.583,2.728,1.331c0.034,0.802,0.044,1.605,0.005,2.409c-0.011,0.04-0.014,0.079-0.007,0.117
					c-0.026,0.49-0.069,0.979-0.121,1.467c-0.079-0.196-0.167-0.388-0.275-0.57c-0.476-0.8-1.232-1.324-2.09-1.466
					c-0.219-0.404-0.658-0.678-1.13-0.572c-0.518,0.117-0.889,0.585-0.905,1.117c-0.003,0.094,0.014,0.182,0.032,0.27
					c0.003,0.015,0.002,0.03,0.005,0.045c0.022,0.087,0.057,0.169,0.095,0.25c0.007,0.014,0.008,0.028,0.016,0.042
					c0.001,0.001,0.002,0.002,0.002,0.003c0.108,0.212,0.26,0.404,0.422,0.578c0.316,0.34,0.994,0.246,1.183-0.183
					c0.161-0.163,0.287-0.361,0.358-0.58c0.141,0.04,0.276,0.089,0.393,0.151c0.424,0.226,0.737,0.588,0.962,1.008
					c0.425,0.794,0.46,1.674,0.5,2.55c-0.222,1.072-0.505,2.137-0.848,3.18c-0.156-0.5-0.392-0.969-0.766-1.358
					c-0.194-0.203-0.433-0.369-0.683-0.497c-0.005-0.003-0.013-0.006-0.018-0.008c0.037-0.04,0.086-0.066,0.116-0.115
					c0.172-0.286,0.129-0.613-0.035-0.87c-0.194-0.439-0.699-0.745-1.162-0.459c-0.492,0.305-0.613,1.056-0.212,1.483
					c0.065,0.07,0.15,0.105,0.231,0.147c0.085,0.09,0.179,0.174,0.282,0.248c0.34,0.243,0.683,0.399,0.957,0.728
					c0.268,0.321,0.421,0.724,0.53,1.122c0.096,0.35,0.162,0.704,0.212,1.061c-0.287,0.708-0.598,1.405-0.964,2.073
					c-0.433,0.789,0.854,1.479,1.196,0.679c0.143-0.334,0.28-0.67,0.416-1.006c0.554-0.168,1.091-0.405,1.566-0.735
					c0.273-0.189,0.535-0.399,0.773-0.63c0.062-0.06,0.118-0.126,0.177-0.189c0.139,0.034,0.292,0.023,0.404-0.047
					c0.001-0.001,0.001-0.002,0.003-0.003c0.264,0,0.523-0.093,0.704-0.311c0.183-0.221,0.236-0.484,0.101-0.746
					c-0.027-0.052-0.074-0.087-0.11-0.132c0.006-0.024,0.019-0.045,0.022-0.07c0.044-0.343-0.167-0.61-0.482-0.722
					c-0.349-0.125-0.76,0.044-0.998,0.308c-0.244,0.271-0.331,0.655-0.218,1c-0.07,0.076-0.141,0.151-0.213,0.225
					c-0.199,0.203-0.429,0.402-0.633,0.545c-0.214,0.151-0.436,0.276-0.663,0.389c0.36-0.966,0.688-1.943,0.956-2.938
					c0.958-0.602,1.755-1.395,2.339-2.373c0.311-0.521,0.558-1.082,0.746-1.659c0.06-0.183,0.1-0.371,0.145-0.559
					c0.185-0.076,0.347-0.234,0.421-0.424c0.027-0.069,0.032-0.136,0.045-0.204c0.031-0.065,0.071-0.125,0.089-0.198
					C286.638,296.324,286.396,295.878,286.003,295.606z"/>
				<path style="fill:#A87E3E;" d="M213.997,295.606c0.271-0.188,0.768-0.059,0.9,0.248c0.011,0.025,0.013,0.05,0.022,0.075
					c0.107,0.081,0.204,0.174,0.272,0.285c0.214,0.349,0.201,0.702,0.043,1.068c-0.056,0.13-0.173,0.224-0.306,0.285
					c0.031,0.106,0.053,0.215,0.088,0.32c0.175,0.515,0.423,1.004,0.717,1.461c0.332,0.516,0.742,0.994,1.198,1.42
					c-0.042-0.203-0.097-0.403-0.133-0.608c-0.28-1.579-0.418-3.181-0.437-4.784c-0.696-0.949-1.225-1.988-1.573-3.127
					c-0.205-0.671-0.337-1.358-0.42-2.054c-0.042-0.353-0.074-0.706-0.085-1.06c-0.003-0.089-0.005-0.178-0.008-0.268
					c-0.241-0.086-0.444-0.268-0.521-0.538c-0.115-0.405,0.151-0.829,0.522-0.972c0.028-0.036,0.049-0.074,0.083-0.108
					c0.206-0.207,0.63-0.247,0.829,0c0.072,0.09,0.131,0.193,0.179,0.301c0.132,0.1,0.225,0.252,0.226,0.466
					c0.001,0.169,0.002,0.339,0.003,0.508c0.001,0.252-0.183,0.481-0.416,0.574c-0.082,1.691,0.402,3.417,1.195,4.941
					c0.016-0.441,0.029-0.882,0.066-1.322c0.12-1.422,0.343-2.831,0.66-4.217c-0.464-1.418-0.688-2.877-0.678-4.373
					c0.005-0.766,0.062-1.535,0.191-2.29c0.032-0.185,0.085-0.362,0.129-0.542c-0.247-0.25-0.362-0.631-0.258-0.97
					c0.005-0.196,0.107-0.386,0.376-0.483c0.007-0.003,0.013,0,0.02-0.002c0.008-0.004,0.016-0.008,0.024-0.013
					c0.015-0.008,0.022-0.021,0.037-0.029c0.139-0.072,0.286-0.087,0.423-0.065c0.952,0.003,1.35,1.463,0.274,1.786
					c-0.061,0.018-0.114,0.011-0.172,0.018c-0.007,0.038-0.016,0.078-0.021,0.114c-0.281,1.825-0.261,3.658,0.021,5.47
					c0.281-1.004,0.595-1.999,0.982-2.967c0.291-1.732,0.603-3.459,0.922-5.186c0.179-0.968,0.32-1.943,0.473-2.916
					c0.076-0.478,0.174-0.946,0.322-1.398c-0.156-0.386-0.123-0.857,0.205-1.198c0.036-0.038,0.08-0.048,0.12-0.076
					c0.11-0.208,0.324-0.369,0.556-0.355c0.197,0.011,0.381,0.034,0.576,0.065c0.223,0.035,0.41,0.257,0.464,0.464
					c0.041,0.158,0.037,0.306,0.015,0.448c0.017,0.076,0.04,0.149,0.041,0.235c0.007,0.482-0.313,0.952-0.794,1.063
					c-0.073,0.017-0.138,0.009-0.206,0.012c-0.129,0.387-0.222,0.789-0.314,1.193c-0.22,0.97-0.434,1.942-0.619,2.919
					c-0.106,0.556-0.215,1.11-0.323,1.664c0.266-0.487,0.545-0.967,0.842-1.438c0.682-1.084,1.399-2.16,2.124-3.216
					c0.379-0.552,0.777-1.094,1.196-1.617c0.23-0.287,0.484-0.55,0.738-0.813c0.063-0.536,0.4-1.038,0.93-1.226
					c0.842-0.299,1.593,0.222,1.902,0.986c0.201,0.497-0.281,0.901-0.742,0.924c-0.27,0.443-0.753,0.77-1.207,0.722
					c-1.263,1.271-2.699,2.365-3.716,3.882c-0.722,1.076-1.359,2.208-1.925,3.375c0.441-0.478,0.924-0.921,1.451-1.315
					c0.799-0.598,1.715-1.027,2.676-1.294c0.267-0.074,0.525-0.117,0.786-0.15c-0.044-0.137-0.064-0.285-0.045-0.438
					c0.063-0.52,0.527-0.963,1.056-0.911c0.806-0.291,1.556,0.923,0.878,1.59c-0.113,0.111-0.237,0.171-0.364,0.208
					c-0.11,0.09-0.237,0.164-0.387,0.202c-0.165,0.042-0.323,0.037-0.468,0c-0.512,0.19-1.043,0.323-1.55,0.53
					c-1.108,0.452-2.182,1.086-3.076,1.884c-1.006,0.899-1.811,2.07-2.308,3.323c-0.005,0.011-0.016,0.013-0.021,0.024
					c0.258-0.243,0.536-0.464,0.833-0.644c0.674-0.406,1.437-0.584,2.22-0.466c0.104,0.016,0.203,0.052,0.304,0.079
					c0.002-0.166,0.04-0.333,0.129-0.483c0.27-0.456,0.919-0.626,1.365-0.338c0.004,0.003,0.007,0.008,0.011,0.01
					c0.306,0.051,0.572,0.281,0.567,0.673c-0.004,0.338-0.171,0.625-0.432,0.803c-0.22,0.251-0.569,0.396-0.921,0.312
					c-0.102-0.024-0.19-0.07-0.273-0.123c-0.256,0.003-0.504-0.067-0.759-0.086c-0.261-0.019-0.519,0.01-0.771,0.078
					c-0.487,0.131-0.958,0.354-1.354,0.667c-0.487,0.385-0.877,0.898-1.225,1.408c-0.15,0.221-0.304,0.44-0.455,0.661
					c-0.238,1.119-0.402,2.25-0.492,3.387c0.661-0.709,1.526-1.224,2.497-1.36c0.32-0.045,0.613-0.036,0.921-0.009
					c0.007-0.065,0.011-0.13,0.031-0.196c0.128-0.411,0.493-0.648,0.869-0.678c0.187-0.072,0.395-0.062,0.607,0.025
					c0.86,0.354,0.67,1.677-0.154,1.934c-0.332,0.104-0.661,0.027-0.915-0.151c-0.378,0.078-0.794,0.036-1.174,0.086
					c-1.017,0.132-2.017,0.583-2.728,1.331c-0.034,0.802-0.044,1.605-0.005,2.409c0.011,0.04,0.014,0.079,0.007,0.117
					c0.026,0.49,0.068,0.979,0.12,1.467c0.079-0.196,0.167-0.388,0.275-0.57c0.476-0.8,1.232-1.324,2.09-1.466
					c0.219-0.404,0.658-0.678,1.13-0.572c0.518,0.117,0.889,0.585,0.905,1.117c0.003,0.094-0.014,0.182-0.032,0.27
					c-0.003,0.015-0.002,0.03-0.005,0.045c-0.022,0.087-0.057,0.169-0.095,0.25c-0.007,0.014-0.008,0.028-0.016,0.042
					c-0.001,0.001-0.002,0.002-0.002,0.003c-0.108,0.212-0.26,0.404-0.422,0.578c-0.316,0.34-0.994,0.246-1.183-0.183
					c-0.161-0.163-0.287-0.361-0.358-0.58c-0.141,0.04-0.276,0.089-0.393,0.151c-0.424,0.226-0.737,0.588-0.962,1.008
					c-0.425,0.794-0.46,1.674-0.499,2.55c0.222,1.072,0.505,2.137,0.848,3.18c0.156-0.5,0.393-0.969,0.766-1.358
					c0.194-0.203,0.433-0.369,0.683-0.497c0.005-0.003,0.013-0.006,0.018-0.008c-0.037-0.04-0.086-0.066-0.116-0.115
					c-0.173-0.286-0.129-0.613,0.035-0.87c0.194-0.439,0.699-0.745,1.162-0.459c0.492,0.305,0.613,1.056,0.212,1.483
					c-0.065,0.07-0.15,0.105-0.231,0.147c-0.085,0.09-0.178,0.174-0.282,0.248c-0.34,0.243-0.683,0.399-0.957,0.728
					c-0.268,0.321-0.421,0.724-0.53,1.122c-0.096,0.35-0.162,0.704-0.212,1.061c0.287,0.708,0.598,1.405,0.964,2.073
					c0.433,0.789-0.854,1.479-1.196,0.679c-0.143-0.334-0.28-0.67-0.416-1.006c-0.554-0.168-1.091-0.405-1.566-0.735
					c-0.273-0.189-0.535-0.399-0.773-0.63c-0.062-0.06-0.118-0.126-0.177-0.189c-0.139,0.034-0.292,0.023-0.404-0.047
					c-0.001-0.001-0.002-0.002-0.003-0.003c-0.264,0-0.523-0.093-0.704-0.311c-0.183-0.221-0.236-0.484-0.101-0.746
					c0.027-0.052,0.074-0.087,0.11-0.132c-0.006-0.024-0.019-0.045-0.022-0.07c-0.044-0.343,0.167-0.61,0.482-0.722
					c0.35-0.125,0.76,0.044,0.998,0.308c0.244,0.271,0.331,0.655,0.218,1c0.07,0.076,0.141,0.151,0.213,0.225
					c0.199,0.203,0.429,0.402,0.633,0.545c0.214,0.151,0.436,0.276,0.663,0.389c-0.36-0.966-0.688-1.943-0.956-2.938
					c-0.958-0.602-1.755-1.395-2.339-2.373c-0.311-0.521-0.558-1.082-0.745-1.659c-0.059-0.183-0.1-0.371-0.145-0.559
					c-0.185-0.076-0.347-0.234-0.421-0.424c-0.027-0.069-0.032-0.136-0.045-0.204c-0.032-0.065-0.071-0.125-0.089-0.198
					C213.362,296.324,213.604,295.878,213.997,295.606z"/>
			</g>
			<g>
				<path style="fill:#A87E3E;" d="M249.703,313.568c-1.028-0.889-2.125,0.915-1.04,1.365c0.249,0.104,0.353,0.307,0.252,0.579
					c-0.126,0.339-0.565,0.451-0.883,0.515c-0.894,0.178-1.949,0.069-2.834-0.113c-1.023-0.211-1.964-0.595-2.858-1.13
					c-0.898-0.537-1.743-1.112-2.722-1.497c-1.61-0.634-3.657-0.819-5.053,0.393c-1.111,0.965-1.247,2.712-0.296,3.831
					c0.531,0.625,1.32,0.948,2.128,0.74c0.931-0.24,1.508-1.024,1.482-1.976c-0.024-0.884-1.359-1.111-1.571-0.203
					c-0.127,0.543-1.102,1.004-1.533,0.601c-0.846-0.792-0.071-2.055,0.764-2.435c1.082-0.493,2.195-0.125,3.149,0.467
					c1.013,0.629,1.933,1.395,2.971,1.988c1.852,1.058,4.543,1.884,6.651,1.16c0.945-0.324,1.71-0.991,1.965-1.983
					C250.487,315.048,250.371,314.146,249.703,313.568z"/>
				<path style="fill:#A87E3E;" d="M250.297,313.568c1.028-0.889,2.125,0.915,1.04,1.365c-0.249,0.104-0.353,0.307-0.252,0.579
					c0.127,0.339,0.565,0.451,0.883,0.515c0.894,0.178,1.949,0.069,2.834-0.113c1.023-0.211,1.964-0.595,2.858-1.13
					c0.898-0.537,1.743-1.112,2.722-1.497c1.61-0.634,3.658-0.819,5.053,0.393c1.111,0.965,1.247,2.712,0.296,3.831
					c-0.531,0.625-1.32,0.948-2.128,0.74c-0.931-0.24-1.508-1.024-1.483-1.976c0.024-0.884,1.359-1.111,1.571-0.203
					c0.127,0.543,1.102,1.004,1.533,0.601c0.846-0.792,0.071-2.055-0.764-2.435c-1.082-0.493-2.195-0.125-3.149,0.467
					c-1.013,0.629-1.933,1.395-2.971,1.988c-1.852,1.058-4.543,1.884-6.651,1.16c-0.945-0.324-1.71-0.991-1.965-1.983
					C249.513,315.048,249.629,314.146,250.297,313.568z"/>
			</g>
			<g>
				<g>
					<path style="fill:#335E4E;" d="M247.1,329.701c-0.007-0.016-0.013-0.029-0.019-0.034c0.004,0.011,0.013,0.02,0.017,0.032
						C247.099,329.7,247.099,329.701,247.1,329.701z"/>
					<path style="fill:#335E4E;" d="M250.143,324.2c-0.309-0.486-0.732-0.906-1.231-1.197c-0.23-0.135-0.485-0.245-0.74-0.322
						c-0.158-0.047-0.316-0.07-0.478-0.097c-0.041-0.007-0.246-0.035-0.234-0.027c-0.343-0.193-0.682-0.112-0.978,0.113
						c-0.024,0.018-0.048,0.036-0.072,0.054c-0.485,0.368-0.178,1.131,0.321,1.285c0.031,0.01,0.061,0.019,0.092,0.028
						c0.22,0.068,0.464,0.021,0.657-0.102c0.589-0.108,1.271,0.361,1.592,0.81c0.455,0.638,0.574,1.494,0.424,2.252
						c-0.159,0.8-0.577,1.562-1.137,2.151c-0.236,0.248-0.566,0.61-0.927,0.667c-0.076,0.012-0.187-0.017-0.205-0.024
						c-0.264-0.1,0.128,0.044-0.111-0.077c-0.008-0.004-0.01-0.008-0.015-0.012c0.004,0.008,0.007,0.012,0.011,0.024
						c-0.003-0.01-0.01-0.016-0.014-0.026c-0.033-0.025-0.032-0.045-0.017-0.032c-0.169-0.445-0.623-0.707-1.092-0.527
						c-0.512,0.197-0.629,0.715-0.443,1.186c0.229,0.58,0.846,0.902,1.448,0.913c0.588,0.01,1.157-0.311,1.578-0.699
						c0.859-0.792,1.613-1.818,1.951-2.945C250.853,326.488,250.772,325.191,250.143,324.2z"/>
				</g>
				<g>
					<path style="fill:#335E4E;" d="M254.876,329.857c0.008-0.016,0.014-0.028,0.02-0.033c-0.005,0.011-0.013,0.019-0.018,0.031
						C254.878,329.855,254.877,329.856,254.876,329.857z"/>
					<path style="fill:#335E4E;" d="M256.009,329.341c-0.462-0.199-0.926,0.045-1.112,0.483c0.016-0.013,0.016,0.007-0.018,0.031
						c-0.004,0.009-0.011,0.016-0.015,0.025c0.004-0.012,0.008-0.015,0.012-0.024c-0.006,0.004-0.008,0.008-0.016,0.011
						c-0.244,0.112,0.154-0.016-0.114,0.073c-0.018,0.006-0.13,0.03-0.205,0.016c-0.358-0.071-0.674-0.445-0.9-0.703
						c-0.537-0.611-0.924-1.389-1.05-2.195c-0.026-0.167-0.034-0.339-0.033-0.511c0.188-0.007,0.378-0.013,0.566-0.011
						c0.275,0.003,0.527,0.083,0.8,0.1c0.437,0.027,0.777-0.392,0.732-0.806c-0.048-0.444-0.459-0.712-0.888-0.63
						c-0.242,0.046-0.463,0.155-0.711,0.191c-0.093,0.014-0.188,0.019-0.283,0.03c0.086-0.212,0.19-0.416,0.33-0.597
						c0.338-0.436,1.038-0.877,1.623-0.746c0.188,0.13,0.429,0.187,0.652,0.128c0.031-0.008,0.062-0.017,0.093-0.025
						c0.505-0.134,0.841-0.884,0.372-1.271c-0.023-0.019-0.046-0.038-0.069-0.057c-0.286-0.236-0.622-0.331-0.973-0.152
						c0.013-0.007-0.193,0.013-0.234,0.018c-0.163,0.02-0.322,0.037-0.481,0.077c-0.258,0.066-0.517,0.167-0.752,0.292
						c-0.509,0.271-0.95,0.674-1.278,1.147c-0.264,0.381-0.422,0.82-0.526,1.273c-0.188,0.01-0.375,0.026-0.563,0.031
						c-0.458,0.015-0.917,0.029-1.376,0.044c-0.485,0.016-1.066-0.044-1.529,0.106c-0.256,0.083-0.453,0.29-0.459,0.571
						c-0.005,0.249,0.177,0.54,0.436,0.589c0.495,0.093,1.03-0.016,1.528-0.064c0.478-0.046,0.956-0.091,1.435-0.137
						c0.136-0.013,0.273-0.018,0.41-0.029c0.01,0.338,0.048,0.673,0.13,0.994c0.292,1.139,1.005,2.195,1.832,3.02
						c0.405,0.404,0.961,0.748,1.548,0.761c0.602,0.014,1.231-0.284,1.483-0.854C256.609,330.081,256.513,329.558,256.009,329.341z"
						/>
				</g>
				<path style="fill:#335E4E;" d="M250.339,321.306c-0.014,0.954,0.113,1.889,0.138,2.84c0.024,0.91,0.017,1.818,0.007,2.728
					c-0.01,0.909-0.026,1.818-0.04,2.727c-0.006,0.436-0.024,0.874,0.003,1.31c0.029,0.476,0.201,0.913,0.277,1.38
					c0.04,0.25,0.446,0.258,0.497,0.01c0.089-0.441,0.268-0.848,0.321-1.298c0.054-0.456,0.054-0.919,0.066-1.378
					c0.023-0.909,0.043-1.818,0.069-2.727c0.026-0.91,0.055-1.818,0.115-2.726c0.063-0.95,0.227-1.878,0.251-2.832
					C252.072,320.242,250.355,320.207,250.339,321.306z"/>
			</g>
			<path style="fill:#A87E3E;" d="M240.581,263.972c-0.192-1.472-1.735-1.692-2.798-0.951c-1.139,0.794-1.872,2.235-2.286,3.522
				c-0.272,0.846-0.472,1.727-0.641,2.614c-0.522-0.737-1.16-1.393-1.868-1.932c-1.253-0.952-3.464-2.125-4.818-0.757
				c-0.538,0.543-0.728,1.258-0.358,1.957c0.392,0.739,1.238,1.146,1.915,1.57c0.94,0.588,1.88,1.178,2.761,1.851
				c0.754,0.577,1.505,1.16,2.272,1.721c0.081,0.343,0.392,0.644,0.715,0.721c0.487,0.117,0.92-0.126,1.134-0.571
				c0.807-1.672,1.611-3.345,2.386-5.032c0.394-0.859,0.755-1.731,1.103-2.61C240.362,265.411,240.677,264.704,240.581,263.972z"/>
			<path style="fill:#A87E3E;" d="M269.724,267.88c-1.285-0.578-2.771-0.022-3.872,0.711c-0.182,0.121-0.348,0.263-0.518,0.398
				c0.004-0.026,0.013-0.051,0.016-0.078c0.195-1.4,0.066-2.948-0.587-4.224c-0.542-1.058-1.8-2.647-3.164-1.884
				c-0.534,0.298-0.839,0.911-0.879,1.506c-0.05,0.753,0.318,1.431,0.632,2.089c0.848,1.775,0.875,3.807,0.505,5.71
				c-0.001,0.005,0.001,0.009,0,0.014c-0.075,0.238-0.137,0.478-0.231,0.713c-0.238,0.598,0.462,1.137,1.003,1.002
				c1.576-0.392,3.145-0.805,4.715-1.221c1.174-0.311,2.602-0.555,3.353-1.617C271.473,269.901,270.902,268.41,269.724,267.88z"/>
			<path style="fill:#A87E3E;" d="M251.599,296.055c-0.131-0.351-0.262-0.701-0.415-1.043c-0.067-0.148-0.143-0.29-0.22-0.432
				c-0.101-0.186-0.231-0.367-0.426-0.463c-0.159-0.078-0.396-0.049-0.479,0.132c-0.053,0.115-0.076,0.214-0.087,0.339
				c-0.009,0.112,0.006,0.218,0.026,0.329c0.031,0.167,0.06,0.334,0.103,0.498c0.085,0.323,0.19,0.638,0.296,0.955
				c0.053,0.159,0.145,0.298,0.294,0.383c0.13,0.074,0.319,0.105,0.464,0.061c0.156-0.048,0.306-0.144,0.383-0.294
				C251.607,296.384,251.654,296.204,251.599,296.055z"/>
			<path style="fill:#A87E3E;" d="M254.384,292.861c-0.055-0.293-0.095-0.614-0.205-0.891c-0.103-0.258-0.486-0.381-0.639-0.084
				c-0.145,0.283-0.214,0.602-0.307,0.905c-0.104,0.341-0.143,0.714-0.166,1.068c-0.043,0.65-0.06,1.297-0.07,1.949
				c-0.006,0.352,0.313,0.687,0.672,0.672c0.387-0.017,0.643-0.297,0.672-0.672c0.049-0.638,0.092-1.272,0.109-1.912
				C254.459,293.552,254.447,293.2,254.384,292.861z"/>
			<path style="fill:#A87E3E;" d="M257.474,293.472c-0.289-0.118-0.673-0.016-0.821,0.28c-0.114,0.228-0.25,0.44-0.376,0.661
				c-0.119,0.209-0.254,0.408-0.398,0.601c-0.012,0.016-0.024,0.031-0.037,0.047c-0.127,0.155-0.215,0.312-0.215,0.519
				c0,0.18,0.08,0.396,0.215,0.519c0.14,0.128,0.324,0.223,0.519,0.215c0.18-0.008,0.404-0.065,0.519-0.215
				c0.218-0.282,0.424-0.569,0.598-0.881c0.17-0.304,0.289-0.639,0.387-0.972C257.959,293.93,257.768,293.591,257.474,293.472z"/>
			<path style="fill:#A87E3E;" d="M276.049,293.71c-0.227-1.283-1.334-2.32-2.607-2.542c-1.364-0.237-2.558,0.335-3.506,1.295
				c-1.12,1.134-2.102,2.95-3.987,2.421c-1.071-0.3-1.503,1.475-0.432,1.648c0.784,0.127,1.488,0.01,2.144-0.454
				c0.598-0.423,1.108-0.95,1.593-1.495c0.856-0.962,1.832-2.572,3.31-2.506c1.114,0.049,2.209,1.096,2.102,2.248
				c-0.051,0.554-0.407,1.098-1.001,1.164c-0.197,0.022-0.397-0.026-0.551-0.152c-0.086-0.07-0.138-0.147-0.189-0.242
				c-0.054-0.101-0.046-0.211-0.089-0.145c0.341-0.517-0.076-1.203-0.642-1.276c-0.641-0.083-1.037,0.479-0.945,1.068
				c0.045,0.29,0.018,0.56,0.122,0.848c0.127,0.352,0.346,0.679,0.628,0.927c0.557,0.49,1.278,0.659,2.002,0.513
				C275.523,296.722,276.305,295.159,276.049,293.71z"/>
			<path style="fill:#A87E3E;" d="M224.709,295.259c0.088-1.3,1.077-2.45,2.32-2.807c1.331-0.382,2.579,0.059,3.624,0.911
				c1.235,1.007,2.406,2.708,4.224,1.979c1.032-0.414,1.652,1.305,0.606,1.592c-0.766,0.21-1.479,0.17-2.18-0.221
				c-0.64-0.356-1.203-0.826-1.744-1.316c-0.954-0.864-2.097-2.361-3.56-2.137c-1.102,0.169-2.079,1.326-1.849,2.461
				c0.111,0.546,0.523,1.048,1.12,1.05c0.199,0,0.391-0.069,0.532-0.211c0.078-0.078,0.121-0.161,0.162-0.261
				c0.043-0.106,0.023-0.215,0.074-0.154c-0.395-0.478-0.053-1.204,0.501-1.337c0.628-0.151,1.082,0.365,1.054,0.961
				c-0.014,0.294,0.042,0.559-0.03,0.856c-0.089,0.364-0.271,0.712-0.525,0.989c-0.502,0.547-1.2,0.793-1.936,0.725
				C225.555,298.198,224.61,296.727,224.709,295.259z"/>
		</g>
		<path style="fill:#335E4E;" d="M265.176,223.578c-1.858,1.507-4.46,2.293-6.783,2.774c-0.211,0.044-0.427,0.063-0.64,0.1
			c1.437-0.924,2.785-1.98,3.97-3.192c2.105-2.152,4.763-5.984,3.239-9.1c-0.252-0.516-0.705-0.749-1.181-0.781
			c-0.353-0.975-1.737-1.341-2.338-0.276c-0.452,0.801-0.516,1.793-1.185,2.454c-0.72,0.71-1.687,1.13-2.656,1.367
			c-2.31,0.566-4.776,0.182-7.114,0.015c-2.019-0.144-4.044-0.251-6.022-0.71c-2.041-0.473-3.91-1.353-5.701-2.422
			c-1.206-0.72-3.015,0.838-2.077,2.077c3.301,4.366,9.464,4.981,14.568,4.931c2.778-0.028,5.783-0.217,8.275-1.568
			c1.057-0.573,2.003-1.364,2.766-2.29c0.001,0.018,0.006,0.035,0.007,0.053c0.036,0.709-0.135,1.452-0.365,2.116
			c-0.495,1.43-1.543,2.501-2.71,3.419c-2.244,1.762-4.96,3.193-7.721,3.917c-0.077,0.02-0.156,0.036-0.234,0.055
			c-0.128-0.019-0.259-0.025-0.386-0.047c-4.622-0.775-8.741-3.272-12.135-6.43c-1.617-1.504-4.061,0.929-2.431,2.431
			c1.896,1.746,4.049,3.108,6.353,4.146c-2.175-0.516-4.232-1.472-5.973-2.932c-1.583-1.328-3.688,0.716-2.287,2.287
			c4.652,5.213,12.115,5.602,18.266,3.097c2.117,0.125,4.235,0.002,6.341-0.315c2.731-0.411,5.243-1.399,7.827-2.258
			C269.508,225.612,267.436,221.746,265.176,223.578z"/>
		<path style="fill:#8A1346;" d="M271.88,228.865c-0.3,0.49-0.62,0.97-0.95,1.44c-3.3,4.69-7.92,8.22-13.12,10.67
			c-11.54,5.44-24.4,5.98-36.84,7.62c-6.16,0.81-12.29,1.9-18.17,3.94c-2.73,0.95-5.36,2.12-7.84,3.59
			c-0.11,0.06-0.22,0.13-0.32,0.2c1.74-2.11,3.64-4.09,5.66-5.96c0.01-0.01,0.02-0.02,0.04-0.03c0.02-0.03,0.05-0.05,0.08-0.08
			c0.11-0.1,0.22-0.2,0.33-0.3c0.58-0.22,1.16-0.42,1.74-0.62c12.36-4.17,25.6-3.22,38.3-5.59c10.52-1.96,21.15-6.66,27.19-15.89
			c0.17-0.26,0.34-0.52,0.5-0.79C269.76,224.955,273.17,226.755,271.88,228.865z"/>
		<path style="fill:#8A1346;" d="M199.73,275.895l-4.48,9.09l-6.33,12.82l-2.97,6.03l-0.21-0.14l-3.35-2.14
			c-0.46-2.16-0.79-4.34-0.96-6.52c-0.15-1.81-0.19-3.62-0.13-5.44c0.26-7.83,2.47-15.73,6.77-23.64c1.29-2.37,2.74-4.64,4.33-6.8
			c0.51-0.69,1.04-1.37,1.58-2.04l1.87,0.97l3.71,1.93l0.57,0.3c0,0-5.89,7.12-2.4,13.17c0,0.01,0,0.01,0,0.01
			C198.21,274.325,198.86,275.125,199.73,275.895z"/>
		<g>
			<path style="fill:#EBC7D2;" d="M181.698,243.935l13.948,7.257c0,0-8.3,10.025-0.429,16.972l-15.006,30.433l-30.824-19.746
				l18.255-28.551C167.642,250.299,175.671,252.941,181.698,243.935z"/>
			<path style="fill:#8A1346;" d="M187.047,266.378c-1.349-2.339-4.298-2.995-6.772-2.358c-1.976,0.509-3.554,1.814-4.892,3.35
				c-0.036-1.475-0.275-2.943-0.741-4.35c-0.719-2.172-2.294-4.895-5-4.422c-2.665,0.466-3.676,3.312-3.472,5.707
				c0.229,2.699,1.027,5.46,1.98,7.943c1.883,4.906-0.499,8.579,1.848,7.641c2.331-1.796,5.165-1.954,7.927-2.541
				c2.807-0.597,5.979-1.406,7.922-3.688C187.509,271.707,188.408,268.737,187.047,266.378z"/>
			<g>
				<path style="fill:#8A1346;" d="M180.929,255.592c-0.515-0.871-1.684-1.021-2.512-0.537c-0.559,0.327-0.909,0.844-1.178,1.411
					c-0.214-0.545-0.496-1.047-1.023-1.384c-0.851-0.545-1.909-0.223-2.235,0.748c-0.323,0.959,0.297,1.886,0.996,2.489
					c0.693,0.598,1.718,1.172,1.855,2.15c-0.008,0.072-0.012,0.142-0.031,0.215c-0.11,0.42,0.401,0.675,0.705,0.405
					c0.908-0.808,1.744-1.662,2.521-2.598C180.675,257.711,181.551,256.644,180.929,255.592z"/>
				<path style="fill:#8A1346;" d="M178.292,282.369c-0.292-0.274-0.63-0.432-0.987-0.517c0.238-0.165,0.455-0.355,0.6-0.607
					c0.49-0.85-0.194-1.772-1.112-1.793c-1.665-0.039-3.608,2.105-5.111,3.488c-0.039,0.036-0.066,0.074-0.082,0.113
					c-0.085,0.089-0.136,0.204-0.118,0.345c0.026,0.2,0.214,0.404,0.432,0.384c1.051-0.099,2.247,0.112,3.218,0.524
					c0.912,0.387,1.872,1.11,2.892,0.573C178.982,284.373,179.055,283.084,178.292,282.369z"/>
				<path style="fill:#8A1346;" d="M165.9,272.416c-0.703-0.766-1.693-0.204-2.183,0.487c-0.32,0.452-0.54,0.964-0.689,1.497
					c-0.32-0.319-0.69-0.575-1.155-0.668c-0.729-0.146-1.53,0.198-1.766,0.942c-0.235,0.743,0.305,1.327,0.922,1.642
					c0.748,0.382,1.527,0.714,2.292,1.064c0.072,0.138,0.205,0.252,0.344,0.289c0.243,0.064,0.465-0.057,0.602-0.254
					c0.54-0.779,1.068-1.575,1.489-2.427C166.14,274.214,166.587,273.165,165.9,272.416z"/>
			</g>
			<path style="fill:#321025;" d="M186.545,249.67c-0.292-0.133-0.607-0.225-0.927-0.257c-0.498-0.218-1.024-0.285-1.558-0.145
				c-0.556,0.146-1.02,0.506-1.344,0.973c-0.609,0.879-0.527,2.2,0.096,3.047c0.647,0.88,1.738,1.418,2.841,1.332
				c0.658-0.051,1.236-0.273,1.743-0.701c0.477-0.403,0.74-1.001,0.806-1.61C188.32,251.223,187.509,250.109,186.545,249.67z"/>
			<path style="fill:#467362;" d="M193.119,267.955c-0.69-1.207-1.438-2.301-1.923-3.62c-0.489-1.329-0.772-2.64-0.77-4.06
				c0.004-2.865,1.059-5.412,2.755-7.673c0.111-0.148,0.143-0.295,0.145-0.437c0.214-0.392,0.182-0.908-0.323-1.149
				c-0.462-0.221-0.956-0.351-1.418-0.581c-0.397-0.198-0.788-0.408-1.181-0.614c-0.814-0.426-1.617-0.875-2.418-1.325
				c-1.631-0.916-3.2-1.936-4.814-2.883c-0.136-0.08-0.268-0.108-0.395-0.112c-0.384-0.236-0.941-0.238-1.263,0.244
				c-1.386,2.075-3.293,4.035-5.525,5.193c-2.348,1.218-4.954,1.281-7.546,1.142c-0.54-0.029-0.825,0.335-0.882,0.748
				c-1.542,1.808-2.69,4.006-3.983,5.986c-1.32,2.022-2.669,4.028-4.037,6.018c-1.372,1.996-2.785,3.964-4.11,5.991
				c-1.371,2.098-2.657,4.249-4.055,6.329c-0.21,0.312-0.179,0.619-0.037,0.876c-0.055,0.302-0.001,0.632,0.246,0.823
				c2.07,1.6,4.483,2.69,6.742,3.987c2.269,1.303,4.497,2.678,6.732,4.038c2.238,1.362,4.468,2.733,6.643,4.195
				c1.051,0.707,2.098,1.418,3.162,2.104c1.088,0.702,2.262,1.621,3.489,2.037c0.357,0.121,0.674,0.004,0.895-0.22
				c0.429,0.167,0.922,0.089,1.14-0.445c1.776-4.345,3.675-8.685,5.807-12.867c1.067-2.092,2.183-4.159,3.34-6.203
				c1.16-2.048,2.528-3.962,3.721-5.989c0.225-0.382,0.157-0.745-0.041-1.021C193.233,268.299,193.217,268.126,193.119,267.955z
				 M188.267,274.758c-1.103,2.074-2.188,4.157-3.268,6.243c-2.098,4.054-4.204,8.091-6.213,12.19
				c-0.379-0.267-0.779-0.507-1.174-0.745c-0.579-0.35-1.157-0.703-1.743-1.041c-1.094-0.632-2.202-1.238-3.307-1.848
				c-2.252-1.244-4.45-2.576-6.643-3.921c-2.194-1.345-4.385-2.692-6.556-4.075c-2.004-1.277-3.909-2.79-6.023-3.891
				c1.028-1.995,2.166-3.926,3.314-5.854c1.257-2.111,2.464-4.253,3.778-6.329c1.294-2.043,2.666-4.037,4.109-5.977
				c0.735-0.988,1.518-1.943,2.287-2.905c0.69-0.864,1.441-1.72,2.055-2.647c2.659,0.008,5.232-1.004,7.614-2.124
				c2.383-1.121,4.449-2.563,6.071-4.61c1.547,0.885,3.137,1.68,4.702,2.532c0.807,0.44,1.618,0.872,2.423,1.316
				c0.388,0.215,0.781,0.421,1.166,0.641c0.198,0.113,0.385,0.244,0.571,0.375c-1.539,2.439-2.339,5.446-2.354,8.305
				c-0.015,2.791,0.589,6.008,2.29,8.315C190.246,270.679,189.332,272.756,188.267,274.758z"/>
		</g>
		<path style="fill:#335E4E;" d="M268.438,226.766c-6.903,9.095-18.273,12.863-29.248,13.769
			c-12.872,1.063-25.945-1.231-38.672,1.65c-3.132,0.709-6.227,1.679-9.157,3c-2.775,1.251-5.986,2.856-8.041,5.149
			c-0.953,1.064,0.02,3.243,1.531,2.348c2.531-1.498,4.792-3.266,7.487-4.51c2.617-1.208,5.357-2.103,8.16-2.765
			c6.06-1.43,12.275-1.891,18.484-2.069c12.544-0.359,25.387,0.412,37.422-3.822c5.967-2.099,11.365-5.556,15.229-10.613
			C273.134,226.94,269.932,224.797,268.438,226.766z"/>
	</g>
	<g>
		<g>
			<path style="fill:#A87E3E;" d="M298.435,204.952c0.393,3.264,0.484,6.528,0.5,9.792c-0.014,3.264-0.104,6.528-0.5,9.792
				c-0.396-3.264-0.486-6.528-0.5-9.792C297.951,211.481,298.042,208.217,298.435,204.952z"/>
		</g>
		<g>
			<path style="fill:#A87E3E;" d="M288.643,214.745c3.264-0.393,6.528-0.484,9.792-0.5c3.264,0.014,6.528,0.104,9.792,0.5
				c-3.264,0.396-6.528,0.486-9.792,0.5C295.171,215.228,291.907,215.138,288.643,214.745z"/>
		</g>
		<g>
			<path style="fill:#A87E3E;" d="M303.402,209.778c-1.377,1.934-2.97,3.653-4.613,5.32c-1.666,1.645-3.384,3.238-5.32,4.613
				c1.375-1.936,2.968-3.654,4.613-5.32C299.749,212.748,301.467,211.155,303.402,209.778z"/>
		</g>
		<g>
			<path style="fill:#A87E3E;" d="M293.468,209.778c1.934,1.377,3.653,2.97,5.32,4.614c1.645,1.666,3.238,3.384,4.613,5.32
				c-1.936-1.375-3.654-2.968-5.32-4.613C296.438,213.43,294.845,211.712,293.468,209.778z"/>
		</g>
	</g>
	<g>
		<g>
			<path style="fill:#A87E3E;" d="M205.026,207.475c0.394,2.423,0.483,4.847,0.5,7.27c-0.015,2.423-0.103,4.847-0.5,7.27
				c-0.397-2.423-0.485-4.847-0.5-7.27C204.543,212.321,204.632,209.898,205.026,207.475z"/>
		</g>
		<g>
			<path style="fill:#A87E3E;" d="M197.756,214.745c2.423-0.394,4.847-0.483,7.27-0.5c2.423,0.015,4.847,0.103,7.27,0.5
				c-2.423,0.396-4.847,0.485-7.27,0.5C202.603,215.228,200.179,215.139,197.756,214.745z"/>
		</g>
	</g>
	<g>
		<g>
			<path style="fill:#A87E3E;" d="M178.81,345.918c0.394,2.423,0.483,4.847,0.5,7.27c-0.015,2.423-0.103,4.847-0.5,7.27
				c-0.396-2.423-0.485-4.847-0.5-7.27C178.327,350.764,178.415,348.341,178.81,345.918z"/>
		</g>
		<g>
			<path style="fill:#A87E3E;" d="M171.54,353.188c2.423-0.394,4.847-0.483,7.27-0.5c2.423,0.015,4.847,0.103,7.27,0.5
				c-2.423,0.396-4.847,0.485-7.27,0.5C176.386,353.671,173.963,353.582,171.54,353.188z"/>
		</g>
	</g>
	<g>
		<g>
			<path style="fill:#A87E3E;" d="M327.532,311.043c0.394,2.423,0.483,4.847,0.5,7.27c-0.015,2.423-0.103,4.847-0.5,7.27
				c-0.396-2.423-0.485-4.847-0.5-7.27C327.049,315.889,327.138,313.466,327.532,311.043z"/>
		</g>
		<g>
			<path style="fill:#A87E3E;" d="M320.262,318.313c2.423-0.394,4.847-0.483,7.27-0.5c2.423,0.015,4.847,0.103,7.27,0.5
				c-2.423,0.396-4.847,0.485-7.27,0.5C325.109,318.796,322.685,318.707,320.262,318.313z"/>
		</g>
	</g>
</g>
</svg>
